Coda-Caption-Regular.ufo
<glyph name="exclam" format="1">
  <advance width="555"/>
  <unicode hex="0021"/>
  <outline>
    <contour>
      <point x="277" y="503" type="curve" smooth="yes"/>
      <point x="290" y="503"/>
      <point x="305" y="511"/>
      <point x="309" y="543" type="curve" smooth="yes"/>
      <point x="347" y="911"/>
      <point x="400" y="1369"/>
      <point x="400" y="1417" type="curve" smooth="yes"/>
      <point x="400" y="1516"/>
      <point x="364" y="1566"/>
      <point x="277" y="1566" type="curve" smooth="yes"/>
      <point x="190" y="1566"/>
      <point x="155" y="1517"/>
      <point x="155" y="1417" type="curve" smooth="yes"/>
      <point x="155" y="1369"/>
      <point x="204" y="912"/>
      <point x="245" y="543" type="curve" smooth="yes"/>
      <point x="249" y="511"/>
      <point x="264" y="503"/>
    </contour>
    <contour>
      <point x="280" y="-23" type="curve" smooth="yes"/>
      <point x="353" y="-23"/>
      <point x="424" y="28"/>
      <point x="424" y="133" type="curve" smooth="yes"/>
      <point x="424" y="234"/>
      <point x="348" y="288"/>
      <point x="274" y="288" type="curve" smooth="yes"/>
      <point x="202" y="288"/>
      <point x="131" y="237"/>
      <point x="131" y="133" type="curve" smooth="yes"/>
      <point x="131" y="30"/>
      <point x="206" y="-23"/>
    </contour>
  </outline>
</glyph>
<glyph name="numbersign" format="1">
  <advance width="1627"/>
  <unicode hex="0023"/>
  <outline>
    <contour>
      <point x="318" y="0" type="line"/>
      <point x="527" y="0" type="line"/>
      <point x="598" y="409" type="line"/>
      <point x="913" y="409" type="line"/>
      <point x="844" y="0" type="line"/>
      <point x="1052" y="0" type="line"/>
      <point x="1121" y="409" type="line"/>
      <point x="1389" y="409" type="line"/>
      <point x="1412" y="569" type="line"/>
      <point x="1147" y="569" type="line"/>
      <point x="1212" y="967" type="line"/>
      <point x="1477" y="967" type="line"/>
      <point x="1501" y="1140" type="line"/>
      <point x="1241" y="1140" type="line"/>
      <point x="1301" y="1504" type="line"/>
      <point x="1093" y="1504" type="line"/>
      <point x="1031" y="1140" type="line"/>
      <point x="722" y="1140" type="line"/>
      <point x="784" y="1504" type="line"/>
      <point x="570" y="1504" type="line"/>
      <point x="507" y="1140" type="line"/>
      <point x="247" y="1140" type="line"/>
      <point x="220" y="967" type="line"/>
      <point x="478" y="967" type="line"/>
      <point x="412" y="569" type="line"/>
      <point x="152" y="569" type="line"/>
      <point x="125" y="409" type="line"/>
      <point x="386" y="409" type="line"/>
    </contour>
    <contour>
      <point x="625" y="569" type="line"/>
      <point x="692" y="967" type="line"/>
      <point x="1004" y="967" type="line"/>
      <point x="937" y="569" type="line"/>
    </contour>
  </outline>
</glyph>
<glyph name="dollar" format="1">
  <advance width="1313"/>
  <unicode hex="0024"/>
  <outline>
    <component base="S"/>
    <contour>
      <point x="635" y="59" type="line"/>
      <point x="635" y="-256" type="line"/>
      <point x="733" y="-256" type="line"/>
      <point x="733" y="59" type="line"/>
    </contour>
    <contour>
      <point x="635" y="1753" type="line"/>
      <point x="635" y="1438" type="line"/>
      <point x="733" y="1438" type="line"/>
      <point x="733" y="1753" type="line"/>
    </contour>
  </outline>
</glyph>
<glyph name="percent" format="1">
  <advance width="2344"/>
  <unicode hex="0025"/>
  <outline>
    <contour>
      <point x="498" y="731" type="curve" smooth="yes"/>
      <point x="346" y="731"/>
      <point x="329" y="743"/>
      <point x="329" y="921" type="curve" smooth="yes"/>
      <point x="329" y="956"/>
      <point x="330" y="1068"/>
      <point x="330" y="1118" type="curve" smooth="yes"/>
      <point x="330" y="1315"/>
      <point x="349" y="1316"/>
      <point x="513" y="1316" type="curve" smooth="yes"/>
      <point x="686" y="1316"/>
      <point x="694" y="1314"/>
      <point x="694" y="1114" type="curve" smooth="yes"/>
      <point x="694" y="917" type="line" smooth="yes"/>
      <point x="694" y="744"/>
      <point x="677" y="731"/>
    </contour>
    <contour>
      <point x="513" y="588" type="curve" smooth="yes"/>
      <point x="769" y="588"/>
      <point x="874" y="649"/>
      <point x="874" y="902" type="curve" smooth="yes"/>
      <point x="874" y="980"/>
      <point x="874" y="1092"/>
      <point x="871" y="1148" type="curve" smooth="yes"/>
      <point x="858" y="1400"/>
      <point x="781" y="1458"/>
      <point x="513" y="1458" type="curve" smooth="yes"/>
      <point x="261" y="1458"/>
      <point x="156" y="1402"/>
      <point x="156" y="1145" type="curve" smooth="yes"/>
      <point x="156" y="1069"/>
      <point x="156" y="958"/>
      <point x="159" y="904" type="curve" smooth="yes"/>
      <point x="169" y="645"/>
      <point x="243" y="588"/>
    </contour>
    <contour>
      <point x="1817" y="304" type="curve" smooth="yes"/>
      <point x="1665" y="304"/>
      <point x="1648" y="317"/>
      <point x="1648" y="494" type="curve" smooth="yes"/>
      <point x="1648" y="691" type="line" smooth="yes"/>
      <point x="1648" y="889"/>
      <point x="1667" y="889"/>
      <point x="1832" y="889" type="curve" smooth="yes"/>
      <point x="2005" y="889"/>
      <point x="2013" y="887"/>
      <point x="2013" y="688" type="curve" smooth="yes"/>
      <point x="2013" y="491" type="line" smooth="yes"/>
      <point x="2013" y="317"/>
      <point x="1996" y="304"/>
    </contour>
    <contour>
      <point x="1832" y="161" type="curve" smooth="yes"/>
      <point x="2088" y="161"/>
      <point x="2193" y="223"/>
      <point x="2193" y="475" type="curve" smooth="yes"/>
      <point x="2193" y="550"/>
      <point x="2192" y="660"/>
      <point x="2190" y="714" type="curve" smooth="yes"/>
      <point x="2178" y="972"/>
      <point x="2102" y="1032"/>
      <point x="1832" y="1032" type="curve" smooth="yes"/>
      <point x="1580" y="1032"/>
      <point x="1475" y="975"/>
      <point x="1475" y="718" type="curve" smooth="yes"/>
      <point x="1475" y="643"/>
      <point x="1475" y="533"/>
      <point x="1477" y="479" type="curve" smooth="yes"/>
      <point x="1488" y="219"/>
      <point x="1561" y="161"/>
    </contour>
    <contour>
      <point x="887" y="-4" type="line"/>
      <point x="1077" y="-4" type="line"/>
      <point x="1458" y="1581" type="line"/>
      <point x="1266" y="1581" type="line"/>
    </contour>
  </outline>
</glyph>
<glyph name="ampersand" format="1">
  <advance width="1506"/>
  <unicode hex="0026"/>
  <outline>
    <contour>
      <point x="674" y="-25" type="curve" smooth="yes"/>
      <point x="1035" y="-25"/>
      <point x="1241" y="112"/>
      <point x="1241" y="389" type="curve" smooth="yes"/>
      <point x="1240" y="728" type="line"/>
      <point x="1376" y="729" type="line"/>
      <point x="1376" y="863" type="line"/>
      <point x="1241" y="863" type="line"/>
      <point x="1241" y="976" type="line"/>
      <point x="1022" y="976" type="line"/>
      <point x="1022" y="863" type="line"/>
      <point x="578" y="863" type="line" smooth="yes"/>
      <point x="500" y="863"/>
      <point x="443" y="899"/>
      <point x="439" y="1095" type="curve"/>
      <point x="439" y="1178" type="line" smooth="yes"/>
      <point x="439" y="1317"/>
      <point x="516" y="1362"/>
      <point x="725" y="1362" type="curve" smooth="yes"/>
      <point x="856" y="1362"/>
      <point x="942" y="1358"/>
      <point x="983" y="1337" type="curve" smooth="yes"/>
      <point x="1023" y="1316"/>
      <point x="1028" y="1252"/>
      <point x="1033" y="1183" type="curve"/>
      <point x="1224" y="1205" type="line"/>
      <point x="1225" y="1207"/>
      <point x="1225" y="1291"/>
      <point x="1225" y="1294" type="curve" smooth="yes"/>
      <point x="1225" y="1493"/>
      <point x="1041" y="1536"/>
      <point x="726" y="1536" type="curve" smooth="yes"/>
      <point x="348" y="1536"/>
      <point x="201" y="1452"/>
      <point x="201" y="1153" type="curve" smooth="yes"/>
      <point x="201" y="1020"/>
      <point x="234" y="925"/>
      <point x="286" y="875" type="curve" smooth="yes"/>
      <point x="301" y="858"/>
      <point x="346" y="843"/>
      <point x="365" y="834" type="curve"/>
      <point x="365" y="825" type="line"/>
      <point x="340" y="819"/>
      <point x="305" y="808"/>
      <point x="284" y="794" type="curve" smooth="yes"/>
      <point x="192" y="738"/>
      <point x="145" y="587"/>
      <point x="145" y="392" type="curve" smooth="yes"/>
      <point x="145" y="93"/>
      <point x="317" y="-25"/>
    </contour>
    <contour>
      <point x="676" y="149" type="curve" smooth="yes"/>
      <point x="481" y="149"/>
      <point x="381" y="216"/>
      <point x="381" y="361" type="curve" smooth="yes"/>
      <point x="381" y="557"/>
      <point x="384" y="729"/>
      <point x="517" y="729" type="curve" smooth="yes"/>
      <point x="1022" y="729" type="line"/>
      <point x="1022" y="340" type="line" smooth="yes"/>
      <point x="1022" y="213"/>
      <point x="882" y="149"/>
    </contour>
  </outline>
</glyph>
<glyph name="quotesingle" format="1">
  <advance width="491"/>
  <unicode hex="0027"/>
  <outline>
    <contour>
      <point x="264" y="919" type="curve" smooth="yes"/>
      <point x="268" y="944"/>
      <point x="343" y="1301"/>
      <point x="343" y="1388" type="curve" smooth="yes"/>
      <point x="343" y="1474"/>
      <point x="307" y="1517"/>
      <point x="247" y="1517" type="curve" smooth="yes"/>
      <point x="171" y="1517"/>
      <point x="150" y="1475"/>
      <point x="150" y="1375" type="curve" smooth="yes"/>
      <point x="150" y="1292"/>
      <point x="226" y="950"/>
      <point x="230" y="925" type="curve"/>
      <point x="232" y="920"/>
      <point x="245" y="914"/>
      <point x="248" y="914" type="curve" smooth="yes"/>
      <point x="250" y="914"/>
      <point x="263" y="914"/>
    </contour>
  </outline>
</glyph>
<glyph name="asterisk" format="1">
  <advance width="1194"/>
  <unicode hex="002A"/>
  <outline>
    <contour>
      <point x="413" y="555" type="curve" smooth="yes"/>
      <point x="507" y="555"/>
      <point x="524" y="698"/>
      <point x="599" y="969" type="curve"/>
      <point x="631" y="834"/>
      <point x="667" y="665"/>
      <point x="721" y="594" type="curve" smooth="yes"/>
      <point x="784" y="508"/>
      <point x="882" y="573"/>
      <point x="882" y="653" type="curve" smooth="yes"/>
      <point x="882" y="695"/>
      <point x="790" y="806"/>
      <point x="625" y="984" type="curve"/>
      <point x="712" y="959"/>
      <point x="876" y="902"/>
      <point x="955" y="902" type="curve" smooth="yes"/>
      <point x="1025" y="902"/>
      <point x="1060" y="938"/>
      <point x="1060" y="1000" type="curve" smooth="yes"/>
      <point x="1060" y="1062"/>
      <point x="1026" y="1098"/>
      <point x="958" y="1098" type="curve" smooth="yes"/>
      <point x="880" y="1098"/>
      <point x="803" y="1067"/>
      <point x="625" y="1014" type="curve"/>
      <point x="825" y="1223"/>
      <point x="870" y="1295"/>
      <point x="870" y="1353" type="curve" smooth="yes"/>
      <point x="870" y="1410"/>
      <point x="814" y="1452"/>
      <point x="771" y="1437" type="curve"/>
      <point x="651" y="1428"/>
      <point x="613" y="1086"/>
      <point x="599" y="1030" type="curve"/>
      <point x="556" y="1214"/>
      <point x="509" y="1428"/>
      <point x="421" y="1437" type="curve"/>
      <point x="365" y="1452"/>
      <point x="316" y="1407"/>
      <point x="316" y="1345" type="curve" smooth="yes"/>
      <point x="316" y="1303"/>
      <point x="404" y="1193"/>
      <point x="573" y="1014" type="curve"/>
      <point x="492" y="1036"/>
      <point x="314" y="1098"/>
      <point x="236" y="1098" type="curve" smooth="yes"/>
      <point x="169" y="1098"/>
      <point x="135" y="1062"/>
      <point x="135" y="1000" type="curve" smooth="yes"/>
      <point x="135" y="938"/>
      <point x="169" y="902"/>
      <point x="238" y="902" type="curve" smooth="yes"/>
      <point x="312" y="902"/>
      <point x="445" y="946"/>
      <point x="573" y="984" type="curve"/>
      <point x="434" y="833"/>
      <point x="325" y="724"/>
      <point x="325" y="639" type="curve" smooth="yes"/>
      <point x="325" y="598"/>
      <point x="372" y="555"/>
    </contour>
  </outline>
</glyph>
<glyph name="comma" format="1">
  <advance width="605"/>
  <unicode hex="002C"/>
  <outline>
    <contour>
      <point x="195" y="-231" type="curve" smooth="yes"/>
      <point x="343" y="-231"/>
      <point x="460" y="-36"/>
      <point x="460" y="135" type="curve" smooth="yes"/>
      <point x="460" y="234"/>
      <point x="406" y="322"/>
      <point x="312" y="322" type="curve" smooth="yes"/>
      <point x="218" y="322"/>
      <point x="159" y="253"/>
      <point x="159" y="161" type="curve" smooth="yes"/>
      <point x="159" y="71"/>
      <point x="221" y="1"/>
      <point x="307" y="0" type="curve"/>
      <point x="306" y="-87"/>
      <point x="224" y="-154"/>
      <point x="137" y="-154" type="curve"/>
      <point x="137" y="-228" type="line"/>
      <point x="148" y="-230"/>
      <point x="167" y="-231"/>
    </contour>
  </outline>
</glyph>
<glyph name="slash" format="1">
  <advance width="815"/>
  <unicode hex="002F"/>
  <outline>
    <contour>
      <point x="124" y="-23" type="line"/>
      <point x="320" y="-23" type="line"/>
      <point x="693" y="1526" type="line"/>
      <point x="490" y="1526" type="line"/>
    </contour>
  </outline>
</glyph>
<glyph name="zero" format="1">
  <advance width="1327"/>
  <unicode hex="0030"/>
  <outline>
    <contour>
      <point x="663" y="150" type="curve" smooth="yes"/>
      <point x="477" y="150"/>
      <point x="386" y="193"/>
      <point x="380" y="292" type="curve" smooth="yes"/>
      <point x="372" y="415"/>
      <point x="370" y="617"/>
      <point x="370" y="747" type="curve" smooth="yes"/>
      <point x="370" y="878"/>
      <point x="373" y="1079"/>
      <point x="381" y="1202" type="curve" smooth="yes"/>
      <point x="387" y="1312"/>
      <point x="485" y="1357"/>
      <point x="663" y="1357" type="curve" smooth="yes"/>
      <point x="841" y="1357"/>
      <point x="939" y="1312"/>
      <point x="946" y="1202" type="curve" smooth="yes"/>
      <point x="953" y="1079"/>
      <point x="957" y="878"/>
      <point x="957" y="747" type="curve" smooth="yes"/>
      <point x="957" y="617"/>
      <point x="955" y="415"/>
      <point x="947" y="292" type="curve" smooth="yes"/>
      <point x="941" y="193"/>
      <point x="850" y="150"/>
    </contour>
    <contour>
      <point x="664" y="-19" type="curve" smooth="yes"/>
      <point x="1140" y="-19"/>
      <point x="1180" y="193"/>
      <point x="1180" y="721" type="curve" smooth="yes"/>
      <point x="1180" y="883" type="line" smooth="yes"/>
      <point x="1180" y="1343"/>
      <point x="1092" y="1523"/>
      <point x="664" y="1523" type="curve" smooth="yes"/>
      <point x="219" y="1523"/>
      <point x="147" y="1331"/>
      <point x="147" y="837" type="curve" smooth="yes"/>
      <point x="147" y="663" type="line" smooth="yes"/>
      <point x="148" y="177"/>
      <point x="205" y="-19"/>
    </contour>
  </outline>
</glyph>
<glyph name="two" format="1">
  <advance width="1314"/>
  <unicode hex="0032"/>
  <outline>
    <contour>
      <point x="193" y="0" type="line"/>
      <point x="1088" y="0" type="line"/>
      <point x="1088" y="166" type="line"/>
      <point x="410" y="166" type="line"/>
      <point x="410" y="365"/>
      <point x="465" y="399"/>
      <point x="662" y="517" type="curve" smooth="yes"/>
      <point x="940" y="683"/>
      <point x="1122" y="748"/>
      <point x="1122" y="1100" type="curve" smooth="yes"/>
      <point x="1122" y="1431"/>
      <point x="991" y="1523"/>
      <point x="651" y="1523" type="curve" smooth="yes"/>
      <point x="335" y="1523"/>
      <point x="193" y="1438"/>
      <point x="193" y="1179" type="curve"/>
      <point x="194" y="1148" type="line"/>
      <point x="394" y="1117" type="line"/>
      <point x="402" y="1210"/>
      <point x="402" y="1299"/>
      <point x="441" y="1328" type="curve" smooth="yes"/>
      <point x="482" y="1358"/>
      <point x="571" y="1367"/>
      <point x="663" y="1367" type="curve" smooth="yes"/>
      <point x="769" y="1367"/>
      <point x="836" y="1350"/>
      <point x="863" y="1312" type="curve" smooth="yes"/>
      <point x="891" y="1274"/>
      <point x="905" y="1179"/>
      <point x="905" y="1096" type="curve" smooth="yes"/>
      <point x="905" y="835"/>
      <point x="794" y="826"/>
      <point x="555" y="682" type="curve" smooth="yes"/>
      <point x="339" y="553"/>
      <point x="193" y="475"/>
      <point x="193" y="140" type="curve" smooth="yes"/>
    </contour>
  </outline>
</glyph>
<glyph name="four" format="1">
  <advance width="1314"/>
  <unicode hex="0034"/>
  <outline>
    <contour>
      <point x="635" y="1504" type="line"/>
      <point x="140" y="554" type="line"/>
      <point x="140" y="370" type="line"/>
      <point x="833" y="370" type="line"/>
      <point x="833" y="0" type="line"/>
      <point x="1051" y="0" type="line"/>
      <point x="1051" y="1007" type="line"/>
      <point x="833" y="1007" type="line"/>
      <point x="833" y="532" type="line"/>
      <point x="372" y="532" type="line"/>
      <point x="459" y="706" type="line"/>
      <point x="867" y="1504" type="line"/>
    </contour>
  </outline>
</glyph>
<glyph name="five" format="1">
  <advance width="1314"/>
  <unicode hex="0035"/>
  <outline>
    <contour>
      <point x="662" y="-19" type="curve" smooth="yes"/>
      <point x="1053" y="-19"/>
      <point x="1182" y="66"/>
      <point x="1182" y="472" type="curve" smooth="yes"/>
      <point x="1182" y="821"/>
      <point x="1113" y="971"/>
      <point x="741" y="971" type="curve" smooth="yes"/>
      <point x="520" y="971"/>
      <point x="463" y="893"/>
      <point x="418" y="794" type="curve"/>
      <point x="447" y="1331" type="line"/>
      <point x="1090" y="1331" type="line"/>
      <point x="1090" y="1504" type="line"/>
      <point x="223" y="1504" type="line"/>
      <point x="218" y="661" type="line"/>
      <point x="427" y="650" type="line"/>
      <point x="437" y="702"/>
      <point x="458" y="757"/>
      <point x="489" y="776" type="curve" smooth="yes"/>
      <point x="533" y="803"/>
      <point x="605" y="805"/>
      <point x="684" y="805" type="curve" smooth="yes"/>
      <point x="949" y="805"/>
      <point x="963" y="768"/>
      <point x="963" y="567" type="curve" smooth="yes"/>
      <point x="963" y="521"/>
      <point x="966" y="400"/>
      <point x="966" y="362" type="curve" smooth="yes"/>
      <point x="966" y="232"/>
      <point x="926" y="146"/>
      <point x="662" y="146" type="curve" smooth="yes"/>
      <point x="467" y="146"/>
      <point x="419" y="168"/>
      <point x="402" y="292" type="curve" smooth="yes"/>
      <point x="400" y="311"/>
      <point x="397" y="364"/>
      <point x="395" y="388" type="curve"/>
      <point x="204" y="370" type="line"/>
      <point x="204" y="350"/>
      <point x="202" y="319"/>
      <point x="202" y="301" type="curve" smooth="yes"/>
      <point x="202" y="28"/>
      <point x="381" y="-19"/>
    </contour>
  </outline>
</glyph>
<glyph name="seven" format="1">
  <advance width="1314"/>
  <unicode hex="0037"/>
  <outline>
    <contour>
      <point x="406" y="0" type="line"/>
      <point x="647" y="0" type="line"/>
      <point x="1148" y="1317" type="line"/>
      <point x="1148" y="1504" type="line"/>
      <point x="201" y="1504" type="line"/>
      <point x="201" y="1333" type="line"/>
      <point x="916" y="1333" type="line"/>
    </contour>
  </outline>
</glyph>
<glyph name="nine" format="1">
  <advance width="1314"/>
  <unicode hex="0039"/>
  <outline>
    <contour>
      <point x="668" y="-17" type="curve" smooth="yes"/>
      <point x="1145" y="-17"/>
      <point x="1174" y="151"/>
      <point x="1174" y="664" type="curve" smooth="yes"/>
      <point x="1174" y="886" type="line" smooth="yes"/>
      <point x="1174" y="1411"/>
      <point x="1120" y="1519"/>
      <point x="630" y="1519" type="curve" smooth="yes"/>
      <point x="246" y="1519"/>
      <point x="141" y="1421"/>
      <point x="141" y="1008" type="curve" smooth="yes"/>
      <point x="141" y="618"/>
      <point x="272" y="535"/>
      <point x="636" y="535" type="curve" smooth="yes"/>
      <point x="808" y="535"/>
      <point x="898" y="566"/>
      <point x="948" y="627" type="curve"/>
      <point x="947" y="325" type="line" smooth="yes"/>
      <point x="946" y="181"/>
      <point x="883" y="136"/>
      <point x="669" y="136" type="curve" smooth="yes"/>
      <point x="563" y="136"/>
      <point x="448" y="140"/>
      <point x="421" y="164" type="curve" smooth="yes"/>
      <point x="394" y="189"/>
      <point x="393" y="261"/>
      <point x="393" y="347" type="curve"/>
      <point x="188" y="336" type="line"/>
      <point x="188" y="230" type="line" smooth="yes"/>
      <point x="187" y="7"/>
      <point x="423" y="-17"/>
    </contour>
    <contour>
      <point x="661" y="704" type="curve" smooth="yes"/>
      <point x="387" y="704"/>
      <point x="360" y="743"/>
      <point x="360" y="934" type="curve" smooth="yes"/>
      <point x="360" y="1181" type="line" smooth="yes"/>
      <point x="360" y="1316"/>
      <point x="395" y="1365"/>
      <point x="662" y="1365" type="curve" smooth="yes"/>
      <point x="926" y="1365"/>
      <point x="946" y="1295"/>
      <point x="948" y="1148" type="curve" smooth="yes"/>
      <point x="950" y="939" type="line" smooth="yes"/>
      <point x="952" y="782"/>
      <point x="948" y="704"/>
    </contour>
  </outline>
</glyph>
<glyph name="equal" format="1">
  <advance width="1143"/>
  <unicode hex="003D"/>
  <outline>
    <contour>
      <point x="153" y="273" type="line"/>
      <point x="994" y="273" type="line"/>
      <point x="994" y="481" type="line"/>
      <point x="153" y="481" type="line"/>
    </contour>
    <contour>
      <point x="153" y="675" type="line"/>
      <point x="994" y="675" type="line"/>
      <point x="994" y="883" type="line"/>
      <point x="153" y="883" type="line"/>
    </contour>
  </outline>
</glyph>
<glyph name="greater" format="1">
  <advance width="1017"/>
  <unicode hex="003E"/>
  <outline>
    <contour>
      <point x="164" y="204" type="line"/>
      <point x="880" y="635" type="line"/>
      <point x="880" y="857" type="line"/>
      <point x="164" y="1303" type="line"/>
      <point x="164" y="1032" type="line"/>
      <point x="692" y="753" type="line"/>
      <point x="164" y="467" type="line"/>
    </contour>
  </outline>
</glyph>
<glyph name="B" format="1">
  <advance width="1402"/>
  <unicode hex="0042"/>
  <outline>
    <contour>
      <point x="717" y="1501" type="move" name="top"/>
    </contour>
    <contour>
      <point x="191" y="0" type="line"/>
      <point x="756" y="0" type="line" smooth="yes"/>
      <point x="1184" y="0"/>
      <point x="1275" y="34"/>
      <point x="1275" y="433" type="curve" smooth="yes"/>
      <point x="1275" y="627"/>
      <point x="1240" y="785"/>
      <point x="998" y="810" type="curve"/>
      <point x="998" y="814" type="line"/>
      <point x="1171" y="844"/>
      <point x="1223" y="914"/>
      <point x="1223" y="1119" type="curve"/>
      <point x="1222" y="1216" type="line" smooth="yes"/>
      <point x="1219" y="1456"/>
      <point x="1065" y="1504"/>
      <point x="785" y="1504" type="curve" smooth="yes"/>
      <point x="191" y="1504" type="line"/>
    </contour>
    <contour>
      <point x="432" y="162" type="line"/>
      <point x="432" y="734" type="line"/>
      <point x="651" y="734" type="line" smooth="yes"/>
      <point x="1038" y="734"/>
      <point x="1033" y="710"/>
      <point x="1036" y="515" type="curve" smooth="yes"/>
      <point x="1037" y="330" type="line" smooth="yes"/>
      <point x="1037" y="203"/>
      <point x="989" y="162"/>
      <point x="784" y="162" type="curve" smooth="yes"/>
    </contour>
    <contour>
      <point x="432" y="872" type="line"/>
      <point x="432" y="1341" type="line"/>
      <point x="683" y="1341" type="line" smooth="yes"/>
      <point x="975" y="1341"/>
      <point x="988" y="1332"/>
      <point x="988" y="1185" type="curve" smooth="yes"/>
      <point x="988" y="984" type="line" smooth="yes"/>
      <point x="988" y="911"/>
      <point x="942" y="872"/>
      <point x="622" y="872" type="curve" smooth="yes"/>
    </contour>
  </outline>
</glyph>
<glyph name="C" format="1">
  <advance width="1392"/>
  <unicode hex="0043"/>
  <outline>
    <contour>
      <point x="741" y="0" type="move" name="bot"/>
    </contour>
    <contour>
      <point x="741" y="1501" type="move" name="top"/>
    </contour>
    <contour>
      <point x="154" y="1089" type="curve" smooth="yes"/>
      <point x="149" y="1011"/>
      <point x="147" y="864"/>
      <point x="147" y="755" type="curve" smooth="yes"/>
      <point x="147" y="649"/>
      <point x="148" y="503"/>
      <point x="155" y="427" type="curve" smooth="yes"/>
      <point x="181" y="78"/>
      <point x="330" y="-26"/>
      <point x="782" y="-26" type="curve" smooth="yes"/>
      <point x="1106" y="-26"/>
      <point x="1258" y="40"/>
      <point x="1279" y="336" type="curve" smooth="yes"/>
      <point x="1288" y="459" type="line"/>
      <point x="1071" y="471" type="line"/>
      <point x="1062" y="361"/>
      <point x="1062" y="250"/>
      <point x="1026" y="205" type="curve" smooth="yes"/>
      <point x="990" y="161"/>
      <point x="910" y="143"/>
      <point x="755" y="143" type="curve" smooth="yes"/>
      <point x="486" y="143"/>
      <point x="404" y="190"/>
      <point x="398" y="282" type="curve" smooth="yes"/>
      <point x="391" y="388"/>
      <point x="390" y="570"/>
      <point x="390" y="681" type="curve" smooth="yes"/>
      <point x="390" y="840"/>
      <point x="391" y="1070"/>
      <point x="398" y="1223" type="curve" smooth="yes"/>
      <point x="404" y="1348"/>
      <point x="527" y="1359"/>
      <point x="754" y="1359" type="curve" smooth="yes"/>
      <point x="879" y="1359"/>
      <point x="957" y="1359"/>
      <point x="999" y="1324" type="curve" smooth="yes"/>
      <point x="1041" y="1289"/>
      <point x="1055" y="1177"/>
      <point x="1069" y="1042" type="curve"/>
      <point x="1287" y="1066" type="line"/>
      <point x="1279" y="1163" type="line" smooth="yes"/>
      <point x="1251" y="1475"/>
      <point x="1084" y="1529"/>
      <point x="765" y="1529" type="curve" smooth="yes"/>
      <point x="324" y="1529"/>
      <point x="179" y="1459"/>
    </contour>
  </outline>
</glyph>
<glyph name="H" format="1">
  <advance width="1487"/>
  <unicode hex="0048"/>
  <outline>
    <contour>
      <point x="748" y="750" type="move" name="center"/>
    </contour>
    <contour>
      <point x="744" y="0" type="move" name="bot"/>
    </contour>
    <contour>
      <point x="744" y="1501" type="move" name="top"/>
    </contour>
    <contour>
      <point x="1053" y="1504" type="line"/>
      <point x="1053" y="851" type="line"/>
      <point x="434" y="851" type="line"/>
      <point x="434" y="1504" type="line"/>
      <point x="191" y="1504" type="line"/>
      <point x="191" y="0" type="line"/>
      <point x="434" y="0" type="line"/>
      <point x="434" y="685" type="line"/>
      <point x="1053" y="685" type="line"/>
      <point x="1053" y="0" type="line"/>
      <point x="1296" y="0" type="line"/>
      <point x="1296" y="1504" type="line"/>
    </contour>
  </outline>
</glyph>
<glyph name="I" format="1">
  <advance width="570"/>
  <unicode hex="0049"/>
  <outline>
    <contour>
      <point x="286" y="0" type="move" name="bot"/>
    </contour>
    <contour>
      <point x="292" y="0" type="move" name="ogonek"/>
    </contour>
    <contour>
      <point x="286" y="1501" type="move" name="top"/>
    </contour>
    <contour>
      <point x="164" y="1504" type="line"/>
      <point x="164" y="0" type="line"/>
      <point x="407" y="0" type="line"/>
      <point x="407" y="1504" type="line"/>
    </contour>
  </outline>
</glyph>
<glyph name="J" format="1">
  <advance width="791"/>
  <unicode hex="004A"/>
  <outline>
    <contour>
      <point x="396" y="0" type="move" name="bot"/>
    </contour>
    <contour>
      <point x="507" y="1501" type="move" name="top"/>
    </contour>
    <contour>
      <point x="291" y="-35" type="curve" smooth="yes"/>
      <point x="494" y="-35"/>
      <point x="631" y="25"/>
      <point x="631" y="313" type="curve" smooth="yes"/>
      <point x="631" y="1504" type="line"/>
      <point x="388" y="1504" type="line"/>
      <point x="388" y="327" type="line" smooth="yes"/>
      <point x="388" y="210"/>
      <point x="383" y="154"/>
      <point x="271" y="141" type="curve" smooth="yes"/>
      <point x="235" y="137"/>
      <point x="168" y="136"/>
      <point x="106" y="136" type="curve"/>
      <point x="115" y="-24" type="line"/>
      <point x="123" y="-26"/>
      <point x="219" y="-35"/>
    </contour>
  </outline>
</glyph>
<glyph name="K" format="1">
  <advance width="1336"/>
  <unicode hex="004B"/>
  <outline>
    <contour>
      <point x="669" y="0" type="move" name="bot"/>
    </contour>
    <contour>
      <point x="669" y="1501" type="move" name="top"/>
    </contour>
    <contour>
      <point x="984" y="1504" type="line"/>
      <point x="542" y="913" type="line"/>
      <point x="432" y="764" type="line"/>
      <point x="433" y="945" type="line"/>
      <point x="433" y="1504" type="line"/>
      <point x="191" y="1504" type="line"/>
      <point x="191" y="0" type="line"/>
      <point x="433" y="0" type="line"/>
      <point x="433" y="587" type="line"/>
      <point x="509" y="685" type="line"/>
      <point x="1041" y="0" type="line"/>
      <point x="1327" y="0" type="line"/>
      <point x="713" y="788" type="line"/>
      <point x="1263" y="1504" type="line"/>
    </contour>
  </outline>
</glyph>
<glyph name="M" format="1">
  <advance width="1795"/>
  <unicode hex="004D"/>
  <outline>
    <contour>
      <point x="898" y="0" type="move" name="bot"/>
    </contour>
    <contour>
      <point x="898" y="1501" type="move" name="top"/>
    </contour>
    <contour>
      <point x="1293" y="1511" type="line"/>
      <point x="901" y="373" type="line"/>
      <point x="898" y="373" type="line"/>
      <point x="499" y="1511" type="line"/>
      <point x="234" y="1511" type="line"/>
      <point x="138" y="0" type="line"/>
      <point x="352" y="0" type="line"/>
      <point x="419" y="1160" type="line"/>
      <point x="422" y="1160" type="line"/>
      <point x="826" y="0" type="line"/>
      <point x="973" y="0" type="line"/>
      <point x="1357" y="1160" type="line"/>
      <point x="1363" y="1160" type="line"/>
      <point x="1433" y="0" type="line"/>
      <point x="1656" y="0" type="line"/>
      <point x="1558" y="1511" type="line"/>
    </contour>
  </outline>
</glyph>
<glyph name="P" format="1">
  <advance width="1342"/>
  <unicode hex="0050"/>
  <outline>
    <contour>
      <point x="678" y="0" type="move" name="bot"/>
    </contour>
    <contour>
      <point x="678" y="1501" type="move" name="top"/>
    </contour>
    <contour>
      <point x="191" y="0" type="line"/>
      <point x="433" y="0" type="line"/>
      <point x="433" y="506" type="line"/>
      <point x="806" y="506" type="line" smooth="yes"/>
      <point x="1057" y="506"/>
      <point x="1228" y="554"/>
      <point x="1235" y="954" type="curve"/>
      <point x="1235" y="1030" type="line" smooth="yes"/>
      <point x="1235" y="1433"/>
      <point x="1102" y="1504"/>
      <point x="753" y="1504" type="curve" smooth="yes"/>
      <point x="191" y="1504" type="line"/>
    </contour>
    <contour>
      <point x="433" y="666" type="line"/>
      <point x="433" y="1343" type="line"/>
      <point x="796" y="1343" type="line" smooth="yes"/>
      <point x="857" y="1343"/>
      <point x="907" y="1336"/>
      <point x="934" y="1315" type="curve" smooth="yes"/>
      <point x="981" y="1280"/>
      <point x="989" y="1158"/>
      <point x="992" y="1012" type="curve" smooth="yes"/>
      <point x="992" y="877"/>
      <point x="993" y="743"/>
      <point x="930" y="700" type="curve" smooth="yes"/>
      <point x="897" y="677"/>
      <point x="837" y="666"/>
      <point x="760" y="666" type="curve" smooth="yes"/>
    </contour>
  </outline>
</glyph>
<glyph name="Q" format="1">
  <advance width="1472"/>
  <unicode hex="0051"/>
  <outline>
    <component base="O"/>
    <contour>
      <point x="832" y="38" type="line"/>
      <point x="1094" y="-367" type="line"/>
      <point x="1263" y="-269" type="line"/>
      <point x="1049" y="76" type="line"/>
    </contour>
  </outline>
</glyph>
<glyph name="R" format="1">
  <advance width="1416"/>
  <unicode hex="0052"/>
  <outline>
    <contour>
      <point x="716" y="0" type="move" name="bot"/>
    </contour>
    <contour>
      <point x="716" y="1501" type="move" name="top"/>
    </contour>
    <contour>
      <point x="191" y="0" type="line"/>
      <point x="433" y="0" type="line"/>
      <point x="433" y="642" type="line"/>
      <point x="729" y="642" type="line" smooth="yes"/>
      <point x="864" y="642"/>
      <point x="955" y="594"/>
      <point x="976" y="450" type="curve" smooth="yes"/>
      <point x="1032" y="0" type="line"/>
      <point x="1288" y="0" type="line"/>
      <point x="1219" y="461" type="line" smooth="yes"/>
      <point x="1197" y="603"/>
      <point x="1140" y="696"/>
      <point x="996" y="722" type="curve"/>
      <point x="996" y="724" type="line"/>
      <point x="1167" y="751"/>
      <point x="1257" y="839"/>
      <point x="1257" y="1103" type="curve" smooth="yes"/>
      <point x="1257" y="1473"/>
      <point x="1070" y="1504"/>
      <point x="692" y="1504" type="curve" smooth="yes"/>
      <point x="191" y="1504" type="line"/>
    </contour>
    <contour>
      <point x="433" y="811" type="line"/>
      <point x="433" y="1340" type="line"/>
      <point x="754" y="1340" type="line" smooth="yes"/>
      <point x="1006" y="1340"/>
      <point x="1018" y="1271"/>
      <point x="1018" y="1089" type="curve" smooth="yes"/>
      <point x="1018" y="891"/>
      <point x="992" y="811"/>
      <point x="765" y="811" type="curve" smooth="yes"/>
    </contour>
  </outline>
</glyph>
<glyph name="S" format="1">
  <advance width="1339"/>
  <unicode hex="0053"/>
  <outline>
    <contour>
      <point x="662" y="0" type="move" name="bot"/>
    </contour>
    <contour>
      <point x="662" y="1501" type="move" name="top"/>
    </contour>
    <contour>
      <point x="661" y="-26" type="curve" smooth="yes"/>
      <point x="1052" y="-26"/>
      <point x="1196" y="16"/>
      <point x="1196" y="451" type="curve" smooth="yes"/>
      <point x="1196" y="794"/>
      <point x="1068" y="836"/>
      <point x="815" y="879" type="curve" smooth="yes"/>
      <point x="527" y="928" type="line"/>
      <point x="469" y="939"/>
      <point x="440" y="952"/>
      <point x="421" y="974" type="curve" smooth="yes"/>
      <point x="393" y="999"/>
      <point x="387" y="1065"/>
      <point x="387" y="1125" type="curve" smooth="yes"/>
      <point x="387" y="1313"/>
      <point x="425" y="1346"/>
      <point x="683" y="1346" type="curve" smooth="yes"/>
      <point x="812" y="1346"/>
      <point x="879" y="1338"/>
      <point x="908" y="1311" type="curve" smooth="yes"/>
      <point x="938" y="1284"/>
      <point x="936" y="1214"/>
      <point x="943" y="1136" type="curve"/>
      <point x="1157" y="1171" type="line"/>
      <point x="1157" y="1483"/>
      <point x="1011" y="1529"/>
      <point x="653" y="1529" type="curve" smooth="yes"/>
      <point x="274" y="1529"/>
      <point x="155" y="1456"/>
      <point x="155" y="1085" type="curve" smooth="yes"/>
      <point x="155" y="849"/>
      <point x="223" y="757"/>
      <point x="406" y="722" type="curve" smooth="yes"/>
      <point x="735" y="662" type="line" smooth="yes"/>
      <point x="746" y="659"/>
      <point x="890" y="633"/>
      <point x="890" y="627" type="curve"/>
      <point x="945" y="617"/>
      <point x="954" y="527"/>
      <point x="955" y="382" type="curve" smooth="yes"/>
      <point x="955" y="189"/>
      <point x="917" y="152"/>
      <point x="664" y="152" type="curve" smooth="yes"/>
      <point x="514" y="152"/>
      <point x="438" y="164"/>
      <point x="405" y="198" type="curve" smooth="yes"/>
      <point x="372" y="233"/>
      <point x="374" y="324"/>
      <point x="362" y="420" type="curve"/>
      <point x="139" y="394" type="line"/>
      <point x="150" y="68"/>
      <point x="192" y="-26"/>
    </contour>
  </outline>
</glyph>
<glyph name="U" format="1">
  <advance width="1445"/>
  <unicode hex="0055"/>
  <outline>
    <contour>
      <point x="723" y="0" type="move" name="bot"/>
    </contour>
    <contour>
      <point x="802" y="0" type="move" name="ogonek"/>
    </contour>
    <contour>
      <point x="723" y="1501" type="move" name="top"/>
    </contour>
    <contour>
      <point x="147" y="1504" type="line"/>
      <point x="147" y="533" type="line" smooth="yes"/>
      <point x="147" y="59"/>
      <point x="312" y="-26"/>
      <point x="721" y="-26" type="curve" smooth="yes"/>
      <point x="1150" y="-26"/>
      <point x="1298" y="76"/>
      <point x="1298" y="533" type="curve" smooth="yes"/>
      <point x="1298" y="1504" type="line"/>
      <point x="1055" y="1504" type="line"/>
      <point x="1055" y="409" type="line" smooth="yes"/>
      <point x="1055" y="194"/>
      <point x="1016" y="144"/>
      <point x="722" y="144" type="curve" smooth="yes"/>
      <point x="400" y="144"/>
      <point x="390" y="184"/>
      <point x="390" y="492" type="curve" smooth="yes"/>
      <point x="390" y="1504" type="line"/>
    </contour>
  </outline>
</glyph>
<glyph name="W" format="1">
  <advance width="1929"/>
  <unicode hex="0057"/>
  <outline>
    <contour>
      <point x="962" y="0" type="move" name="bot"/>
    </contour>
    <contour>
      <point x="962" y="1501" type="move" name="top"/>
    </contour>
    <contour>
      <point x="1607" y="1504" type="line"/>
      <point x="1393" y="349" type="line"/>
      <point x="1379" y="349" type="line"/>
      <point x="1088" y="1504" type="line"/>
      <point x="859" y="1504" type="line"/>
      <point x="564" y="342" type="line"/>
      <point x="554" y="342" type="line"/>
      <point x="340" y="1504" type="line"/>
      <point x="100" y="1504" type="line"/>
      <point x="407" y="0" type="line"/>
      <point x="664" y="0" type="line"/>
      <point x="964" y="1131" type="line"/>
      <point x="979" y="1131" type="line"/>
      <point x="1258" y="0" type="line"/>
      <point x="1518" y="0" type="line"/>
      <point x="1829" y="1504" type="line"/>
    </contour>
  </outline>
</glyph>
<glyph name="X" format="1">
  <advance width="1304"/>
  <unicode hex="0058"/>
  <outline>
    <contour>
      <point x="1002" y="1504" type="line"/>
      <point x="627" y="899" type="line"/>
      <point x="543" y="815" type="line"/>
      <point x="40" y="0" type="line"/>
      <point x="294" y="0" type="line"/>
      <point x="685" y="624" type="line"/>
      <point x="773" y="717" type="line"/>
      <point x="1252" y="1504" type="line"/>
    </contour>
    <contour>
      <point x="84" y="1504" type="line"/>
      <point x="1010" y="0" type="line"/>
      <point x="1256" y="0" type="line"/>
      <point x="325" y="1504" type="line"/>
    </contour>
  </outline>
</glyph>
<glyph name="Y" format="1">
  <advance width="1253"/>
  <unicode hex="0059"/>
  <outline>
    <contour>
      <point x="638" y="0" type="move" name="bot"/>
    </contour>
    <contour>
      <point x="638" y="1501" type="move" name="top"/>
    </contour>
    <contour>
      <point x="973" y="1504" type="line"/>
      <point x="629" y="758" type="line"/>
      <point x="627" y="758" type="line"/>
      <point x="294" y="1504" type="line"/>
      <point x="48" y="1504" type="line"/>
      <point x="501" y="521" type="line"/>
      <point x="501" y="0" type="line"/>
      <point x="743" y="0" type="line"/>
      <point x="743" y="519" type="line"/>
      <point x="1212" y="1504" type="line"/>
    </contour>
  </outline>
</glyph>
<glyph name="bracketleft" format="1">
  <advance width="782"/>
  <unicode hex="005B"/>
  <outline>
    <contour>
      <point x="205" y="1662" type="line"/>
      <point x="205" y="-278" type="line"/>
      <point x="704" y="-278" type="line"/>
      <point x="704" y="-114" type="line"/>
      <point x="440" y="-114" type="line"/>
      <point x="440" y="1499" type="line"/>
      <point x="704" y="1499" type="line"/>
      <point x="704" y="1662" type="line"/>
    </contour>
  </outline>
</glyph>
<glyph name="underscore" format="1">
  <advance width="854"/>
  <unicode hex="005F"/>
  <outline>
    <contour>
      <point x="6" y="-98" type="line"/>
      <point x="6" y="-242" type="line"/>
      <point x="848" y="-242" type="line"/>
      <point x="848" y="-98" type="line"/>
    </contour>
  </outline>
</glyph>
<glyph name="grave" format="1">
  <advance width="740"/>
  <unicode hex="0060"/>
  <outline>
    <contour>
      <point x="416" y="1117" type="move" name="_top"/>
    </contour>
    <contour>
      <point x="118" y="1581" type="curve" smooth="yes"/>
      <point x="118" y="1538"/>
      <point x="142" y="1491"/>
      <point x="194" y="1466" type="curve" smooth="yes"/>
      <point x="227" y="1449"/>
      <point x="588" y="1320"/>
      <point x="610" y="1312" type="curve" smooth="yes"/>
      <point x="618" y="1308"/>
      <point x="626" y="1311"/>
      <point x="631" y="1315" type="curve" smooth="yes"/>
      <point x="637" y="1322"/>
      <point x="638" y="1334"/>
      <point x="630" y="1343" type="curve" smooth="yes"/>
      <point x="614" y="1363"/>
      <point x="361" y="1620"/>
      <point x="317" y="1655" type="curve" smooth="yes"/>
      <point x="290" y="1675"/>
      <point x="261" y="1691"/>
      <point x="228" y="1691" type="curve" smooth="yes"/>
      <point x="159" y="1691"/>
      <point x="118" y="1637"/>
    </contour>
  </outline>
</glyph>
<glyph name="a" format="1">
  <advance width="1174"/>
  <unicode hex="0061"/>
  <outline>
    <contour>
      <point x="588" y="0" type="move" name="bot"/>
    </contour>
    <contour>
      <point x="930" y="0" type="move" name="ogonek"/>
    </contour>
    <contour>
      <point x="566" y="1117" type="move" name="top"/>
    </contour>
    <contour>
      <point x="159" y="894" type="curve" smooth="yes"/>
      <point x="159" y="876"/>
      <point x="159" y="857"/>
      <point x="162" y="838" type="curve"/>
      <point x="352" y="836" type="line"/>
      <point x="353" y="865"/>
      <point x="354" y="914"/>
      <point x="357" y="932" type="curve" smooth="yes"/>
      <point x="366" y="992"/>
      <point x="408" y="1006"/>
      <point x="573" y="1006" type="curve" smooth="yes"/>
      <point x="720" y="1006"/>
      <point x="793" y="988"/>
      <point x="793" y="928" type="curve" smooth="yes"/>
      <point x="793" y="627" type="line"/>
      <point x="719" y="627"/>
      <point x="623" y="623"/>
      <point x="560" y="619" type="curve" smooth="yes"/>
      <point x="294" y="602"/>
      <point x="133" y="550"/>
      <point x="133" y="357" type="curve" smooth="yes"/>
      <point x="133" y="87"/>
      <point x="208" y="-20"/>
      <point x="475" y="-20" type="curve" smooth="yes"/>
      <point x="656" y="-20"/>
      <point x="759" y="14"/>
      <point x="804" y="155" type="curve"/>
      <point x="838" y="0" type="line"/>
      <point x="1028" y="0" type="line"/>
      <point x="1028" y="755" type="line" smooth="yes"/>
      <point x="1028" y="1072"/>
      <point x="896" y="1144"/>
      <point x="585" y="1144" type="curve" smooth="yes"/>
      <point x="350" y="1144"/>
      <point x="159" y="1130"/>
    </contour>
    <contour>
      <point x="793" y="300" type="line" smooth="yes"/>
      <point x="793" y="203"/>
      <point x="725" y="133"/>
      <point x="521" y="133" type="curve" smooth="yes"/>
      <point x="390" y="133"/>
      <point x="358" y="153"/>
      <point x="354" y="258" type="curve" smooth="yes"/>
      <point x="353" y="280"/>
      <point x="353" y="357"/>
      <point x="353" y="387" type="curve" smooth="yes"/>
      <point x="353" y="464"/>
      <point x="432" y="505"/>
      <point x="793" y="505" type="curve"/>
    </contour>
  </outline>
</glyph>
<glyph name="b" format="1">
  <advance width="1239"/>
  <unicode hex="0062"/>
  <outline>
    <contour>
      <point x="619" y="1117" type="move" name="top"/>
    </contour>
    <contour>
      <point x="162" y="1541" type="line"/>
      <point x="162" y="0" type="line"/>
      <point x="376" y="0" type="line"/>
      <point x="395" y="135" type="line"/>
      <point x="435" y="36"/>
      <point x="546" y="-20"/>
      <point x="717" y="-20" type="curve" smooth="yes"/>
      <point x="1049" y="-20"/>
      <point x="1102" y="129"/>
      <point x="1105" y="489" type="curve" smooth="yes"/>
      <point x="1106" y="654" type="line" smooth="yes"/>
      <point x="1109" y="958"/>
      <point x="1061" y="1144"/>
      <point x="703" y="1144" type="curve" smooth="yes"/>
      <point x="536" y="1144"/>
      <point x="442" y="1096"/>
      <point x="396" y="998" type="curve"/>
      <point x="396" y="1541" type="line"/>
    </contour>
    <contour>
      <point x="637" y="128" type="curve" smooth="yes"/>
      <point x="467" y="128"/>
      <point x="396" y="163"/>
      <point x="396" y="260" type="curve" smooth="yes"/>
      <point x="396" y="807" type="line" smooth="yes"/>
      <point x="396" y="976"/>
      <point x="439" y="995"/>
      <point x="636" y="995" type="curve" smooth="yes"/>
      <point x="859" y="995"/>
      <point x="871" y="961"/>
      <point x="871" y="796" type="curve" smooth="yes"/>
      <point x="871" y="325" type="line" smooth="yes"/>
      <point x="871" y="142"/>
      <point x="827" y="128"/>
    </contour>
  </outline>
</glyph>
<glyph name="d" format="1">
  <advance width="1238"/>
  <unicode hex="0064"/>
  <outline>
    <contour>
      <point x="934" y="1334" type="move" name="mid"/>
    </contour>
    <contour>
      <point x="975" y="1117" type="move" name="caron.alt"/>
    </contour>
    <contour>
      <point x="596" y="1132" type="move" name="top"/>
    </contour>
    <contour>
      <point x="842" y="1541" type="line"/>
      <point x="842" y="1004" type="line"/>
      <point x="798" y="1101"/>
      <point x="707" y="1144"/>
      <point x="537" y="1144" type="curve" smooth="yes"/>
      <point x="185" y="1144"/>
      <point x="132" y="989"/>
      <point x="132" y="615" type="curve" smooth="yes"/>
      <point x="132" y="486" type="line" smooth="yes"/>
      <point x="132" y="160"/>
      <point x="175" y="-20"/>
      <point x="521" y="-20" type="curve" smooth="yes"/>
      <point x="692" y="-20"/>
      <point x="799" y="36"/>
      <point x="841" y="135" type="curve"/>
      <point x="862" y="0" type="line"/>
      <point x="1076" y="0" type="line"/>
      <point x="1076" y="1541" type="line"/>
    </contour>
    <contour>
      <point x="602" y="128" type="curve" smooth="yes"/>
      <point x="378" y="128"/>
      <point x="370" y="194"/>
      <point x="369" y="370" type="curve" smooth="yes"/>
      <point x="369" y="758" type="line" smooth="yes"/>
      <point x="368" y="954"/>
      <point x="408" y="995"/>
      <point x="602" y="995" type="curve" smooth="yes"/>
      <point x="781" y="995"/>
      <point x="842" y="964"/>
      <point x="842" y="863" type="curve" smooth="yes"/>
      <point x="842" y="248" type="line" smooth="yes"/>
      <point x="842" y="156"/>
      <point x="767" y="128"/>
    </contour>
  </outline>
</glyph>
<glyph name="f" format="1">
  <advance width="767"/>
  <unicode hex="0066"/>
  <outline>
    <contour>
      <point x="381" y="1360" type="move" name="top"/>
    </contour>
    <contour>
      <point x="249" y="1123" type="curve"/>
      <point x="112" y="1123" type="line"/>
      <point x="112" y="999" type="line"/>
      <point x="249" y="999" type="line"/>
      <point x="249" y="0" type="line"/>
      <point x="483" y="0" type="line"/>
      <point x="483" y="999" type="line"/>
      <point x="693" y="999" type="line"/>
      <point x="693" y="1123" type="line"/>
      <point x="483" y="1123" type="line"/>
      <point x="483" y="1174"/>
      <point x="482" y="1236"/>
      <point x="482" y="1266" type="curve" smooth="yes"/>
      <point x="482" y="1374"/>
      <point x="499" y="1380"/>
      <point x="561" y="1380" type="curve" smooth="yes"/>
      <point x="611" y="1380"/>
      <point x="665" y="1379"/>
      <point x="697" y="1377" type="curve"/>
      <point x="697" y="1528" type="line"/>
      <point x="629" y="1543"/>
      <point x="566" y="1549"/>
      <point x="507" y="1549" type="curve" smooth="yes"/>
      <point x="275" y="1549"/>
      <point x="249" y="1443"/>
    </contour>
  </outline>
</glyph>
<glyph name="l" format="1">
  <advance width="555"/>
  <unicode hex="006C"/>
  <outline>
    <contour>
      <point x="289" y="0" type="move" name="bottom"/>
    </contour>
    <contour>
      <point x="291" y="1086" type="move" name="mid"/>
    </contour>
    <contour>
      <point x="290" y="0" type="move" name="bot"/>
    </contour>
    <contour>
      <point x="318" y="1117" type="move" name="caron.alt"/>
    </contour>
    <contour>
      <point x="292" y="1501" type="move" name="top"/>
    </contour>
    <contour>
      <point x="174" y="1541" type="line"/>
      <point x="174" y="0" type="line"/>
      <point x="408" y="0" type="line"/>
      <point x="408" y="1541" type="line"/>
    </contour>
  </outline>
</glyph>
<glyph name="n" format="1">
  <advance width="1221"/>
  <unicode hex="006E"/>
  <outline>
    <contour>
      <point x="613" y="0" type="move" name="bot"/>
    </contour>
    <contour>
      <point x="612" y="1117" type="move" name="top"/>
    </contour>
    <contour>
      <point x="395" y="1002" type="curve"/>
      <point x="375" y="1123" type="line"/>
      <point x="162" y="1123" type="line"/>
      <point x="162" y="0" type="line"/>
      <point x="396" y="0" type="line"/>
      <point x="396" y="822" type="line" smooth="yes"/>
      <point x="396" y="948"/>
      <point x="448" y="995"/>
      <point x="661" y="995" type="curve" smooth="yes"/>
      <point x="811" y="995"/>
      <point x="839" y="930"/>
      <point x="839" y="773" type="curve" smooth="yes"/>
      <point x="839" y="0" type="line"/>
      <point x="1074" y="0" type="line"/>
      <point x="1074" y="753" type="line" smooth="yes"/>
      <point x="1074" y="998"/>
      <point x="1009" y="1144"/>
      <point x="724" y="1144" type="curve" smooth="yes"/>
      <point x="577" y="1144"/>
      <point x="435" y="1114"/>
    </contour>
  </outline>
</glyph>
<glyph name="o" format="1">
  <advance width="1227"/>
  <unicode hex="006F"/>
  <outline>
    <contour>
      <point x="613" y="0" type="move" name="bot"/>
    </contour>
    <contour>
      <point x="697" y="0" type="move" name="ogonek"/>
    </contour>
    <contour>
      <point x="614" y="1117" type="move" name="top"/>
    </contour>
    <contour>
      <point x="132" y="633" type="curve" smooth="yes"/>
      <point x="132" y="530" type="line" smooth="yes"/>
      <point x="132" y="86"/>
      <point x="190" y="-20"/>
      <point x="613" y="-20" type="curve" smooth="yes"/>
      <point x="1036" y="-20"/>
      <point x="1095" y="84"/>
      <point x="1095" y="530" type="curve" smooth="yes"/>
      <point x="1095" y="634" type="line" smooth="yes"/>
      <point x="1095" y="1067"/>
      <point x="1013" y="1144"/>
      <point x="614" y="1144" type="curve" smooth="yes"/>
      <point x="217" y="1144"/>
      <point x="132" y="1067"/>
    </contour>
    <contour>
      <point x="615" y="132" type="curve" smooth="yes"/>
      <point x="455" y="132"/>
      <point x="377" y="149"/>
      <point x="377" y="212" type="curve" smooth="yes"/>
      <point x="376" y="913" type="line" smooth="yes"/>
      <point x="376" y="995"/>
      <point x="507" y="995"/>
      <point x="614" y="995" type="curve" smooth="yes"/>
      <point x="721" y="995"/>
      <point x="851" y="995"/>
      <point x="851" y="913" type="curve" smooth="yes"/>
      <point x="851" y="212" type="line" smooth="yes"/>
      <point x="851" y="147"/>
      <point x="774" y="132"/>
    </contour>
  </outline>
</glyph>
<glyph name="t" format="1">
  <advance width="851"/>
  <unicode hex="0074"/>
  <outline>
    <contour>
      <point x="409" y="679" type="move" name="mid"/>
    </contour>
    <contour>
      <point x="475" y="0" type="move" name="bot"/>
    </contour>
    <contour>
      <point x="351" y="1261" type="move" name="caron.alt"/>
    </contour>
    <contour>
      <point x="388" y="1284" type="move" name="top"/>
    </contour>
    <contour>
      <point x="265" y="1465" type="line"/>
      <point x="265" y="1123" type="line"/>
      <point x="99" y="1123" type="line"/>
      <point x="99" y="1000" type="line"/>
      <point x="265" y="1000" type="line"/>
      <point x="265" y="254" type="line" smooth="yes"/>
      <point x="265" y="41"/>
      <point x="370" y="-14"/>
      <point x="549" y="-16" type="curve" smooth="yes"/>
      <point x="615" y="-17"/>
      <point x="686" y="-10"/>
      <point x="754" y="-2" type="curve"/>
      <point x="758" y="150" type="line"/>
      <point x="565" y="129"/>
      <point x="499" y="144"/>
      <point x="499" y="247" type="curve" smooth="yes"/>
      <point x="499" y="1000" type="line"/>
      <point x="714" y="1000" type="line"/>
      <point x="714" y="1123" type="line"/>
      <point x="499" y="1123" type="line"/>
      <point x="499" y="1465" type="line"/>
    </contour>
  </outline>
</glyph>
<glyph name="u" format="1">
  <advance width="1222"/>
  <unicode hex="0075"/>
  <outline>
    <contour>
      <point x="932" y="0" type="move" name="ogonek"/>
    </contour>
    <contour>
      <point x="603" y="1117" type="move" name="top"/>
    </contour>
    <contour>
      <point x="824" y="1123" type="line"/>
      <point x="824" y="359" type="line" smooth="yes"/>
      <point x="824" y="230"/>
      <point x="843" y="127"/>
      <point x="599" y="127" type="curve" smooth="yes"/>
      <point x="367" y="127"/>
      <point x="381" y="178"/>
      <point x="381" y="421" type="curve" smooth="yes"/>
      <point x="381" y="1123" type="line"/>
      <point x="146" y="1123" type="line"/>
      <point x="146" y="437" type="line" smooth="yes"/>
      <point x="146" y="108"/>
      <point x="214" y="-20"/>
      <point x="497" y="-20" type="curve" smooth="yes"/>
      <point x="654" y="-20"/>
      <point x="786" y="29"/>
      <point x="825" y="136" type="curve"/>
      <point x="845" y="-1" type="line"/>
      <point x="1060" y="-1" type="line"/>
      <point x="1060" y="1123" type="line"/>
    </contour>
  </outline>
</glyph>
<glyph name="v" format="1">
  <advance width="1086"/>
  <unicode hex="0076"/>
  <outline>
    <contour>
      <point x="799" y="1123" type="line"/>
      <point x="542" y="196" type="line"/>
      <point x="540" y="196" type="line"/>
      <point x="267" y="1123" type="line"/>
      <point x="45" y="1123" type="line"/>
      <point x="402" y="0" type="line"/>
      <point x="674" y="0" type="line"/>
      <point x="1037" y="1123" type="line"/>
    </contour>
  </outline>
</glyph>
<glyph name="w" format="1">
  <advance width="1637"/>
  <unicode hex="0077"/>
  <outline>
    <contour>
      <point x="829" y="0" type="move" name="bot"/>
    </contour>
    <contour>
      <point x="821" y="1117" type="move" name="top"/>
    </contour>
    <contour>
      <point x="358" y="0" type="line"/>
      <point x="609" y="0" type="line"/>
      <point x="823" y="850" type="line"/>
      <point x="825" y="850" type="line"/>
      <point x="1046" y="0" type="line"/>
      <point x="1280" y="0" type="line"/>
      <point x="1556" y="1123" type="line"/>
      <point x="1342" y="1123" type="line"/>
      <point x="1152" y="237" type="line"/>
      <point x="1149" y="237" type="line"/>
      <point x="928" y="1123" type="line"/>
      <point x="714" y="1123" type="line"/>
      <point x="498" y="237" type="line"/>
      <point x="495" y="237" type="line"/>
      <point x="291" y="1123" type="line"/>
      <point x="79" y="1123" type="line"/>
    </contour>
  </outline>
</glyph>
<glyph name="x" format="1">
  <advance width="1078"/>
  <unicode hex="0078"/>
  <outline>
    <contour>
      <point x="64" y="0" type="line"/>
      <point x="278" y="0" type="line"/>
      <point x="560" y="449" type="line"/>
      <point x="648" y="544" type="line"/>
      <point x="1004" y="1123" type="line"/>
      <point x="792" y="1123" type="line"/>
      <point x="527" y="701" type="line"/>
      <point x="439" y="616" type="line"/>
    </contour>
    <contour>
      <point x="770" y="0" type="line"/>
      <point x="1013" y="0" type="line"/>
      <point x="315" y="1123" type="line"/>
      <point x="72" y="1123" type="line"/>
    </contour>
  </outline>
</glyph>
<glyph name="y" format="1">
  <advance width="1074"/>
  <unicode hex="0079"/>
  <outline>
    <contour>
      <point x="541" y="0" type="move" name="bot"/>
    </contour>
    <contour>
      <point x="548" y="1117" type="move" name="top"/>
    </contour>
    <contour>
      <point x="813" y="1123" type="line"/>
      <point x="567" y="238" type="line"/>
      <point x="566" y="238" type="line"/>
      <point x="273" y="1123" type="line"/>
      <point x="45" y="1123" type="line"/>
      <point x="460" y="12" type="line"/>
      <point x="442" y="-68"/>
      <point x="431" y="-120"/>
      <point x="409" y="-154" type="curve" smooth="yes"/>
      <point x="386" y="-192"/>
      <point x="350" y="-207"/>
      <point x="281" y="-207" type="curve" smooth="yes"/>
      <point x="247" y="-207"/>
      <point x="203" y="-202"/>
      <point x="151" y="-194" type="curve"/>
      <point x="134" y="-348" type="line"/>
      <point x="207" y="-358"/>
      <point x="280" y="-366"/>
      <point x="335" y="-366" type="curve" smooth="yes"/>
      <point x="518" y="-366"/>
      <point x="597" y="-304"/>
      <point x="679" y="-36" type="curve" smooth="yes"/>
      <point x="1036" y="1123" type="line"/>
    </contour>
  </outline>
</glyph>
<glyph name="asciitilde" format="1">
  <advance width="1144"/>
  <unicode hex="007E"/>
  <outline>
    <contour>
      <point x="820" y="612" type="curve" smooth="yes"/>
      <point x="969" y="602"/>
      <point x="1031" y="712"/>
      <point x="1060" y="902" type="curve"/>
      <point x="977" y="941" type="line"/>
      <point x="931" y="837"/>
      <point x="908" y="791"/>
      <point x="798" y="811" type="curve" smooth="yes"/>
      <point x="676" y="833"/>
      <point x="505" y="993"/>
      <point x="327" y="969" type="curve" smooth="yes"/>
      <point x="228" y="955"/>
      <point x="131" y="874"/>
      <point x="100" y="706" type="curve"/>
      <point x="175" y="660" type="line"/>
      <point x="206" y="757"/>
      <point x="249" y="792"/>
      <point x="332" y="786" type="curve" smooth="yes"/>
      <point x="471" y="774"/>
      <point x="658" y="622"/>
    </contour>
  </outline>
</glyph>
<glyph name="sterling" format="1">
  <advance width="1519"/>
  <unicode hex="00A3"/>
  <outline>
    <contour>
      <point x="165" y="0" type="line"/>
      <point x="176" y="0"/>
      <point x="209" y="0"/>
      <point x="220" y="1" type="curve" smooth="yes"/>
      <point x="345" y="8"/>
      <point x="417" y="51"/>
      <point x="441" y="138" type="curve"/>
      <point x="473" y="15"/>
      <point x="646" y="0"/>
      <point x="885" y="0" type="curve" smooth="yes"/>
      <point x="1194" y="0"/>
      <point x="1296" y="34"/>
      <point x="1329" y="212" type="curve" smooth="yes"/>
      <point x="1342" y="266"/>
      <point x="1347" y="359"/>
      <point x="1352" y="453" type="curve"/>
      <point x="1154" y="478" type="line"/>
      <point x="1140" y="242" type="line" smooth="yes"/>
      <point x="1136" y="182"/>
      <point x="1022" y="175"/>
      <point x="882" y="175" type="curve" smooth="yes"/>
      <point x="679" y="175"/>
      <point x="551" y="188"/>
      <point x="536" y="232" type="curve"/>
      <point x="550" y="338"/>
      <point x="555" y="704"/>
      <point x="555" y="703" type="curve"/>
      <point x="1026" y="703" type="line"/>
      <point x="1026" y="853" type="line"/>
      <point x="555" y="853" type="line"/>
      <point x="555" y="959"/>
      <point x="540" y="1111"/>
      <point x="540" y="1243" type="curve" smooth="yes"/>
      <point x="540" y="1330"/>
      <point x="550" y="1370"/>
      <point x="824" y="1370" type="curve" smooth="yes"/>
      <point x="1030" y="1370"/>
      <point x="1077" y="1362"/>
      <point x="1084" y="1299" type="curve" smooth="yes"/>
      <point x="1092" y="1236"/>
      <point x="1092" y="1119"/>
      <point x="1095" y="1056" type="curve"/>
      <point x="1313" y="1076" type="line"/>
      <point x="1307" y="1199"/>
      <point x="1303" y="1279"/>
      <point x="1288" y="1341" type="curve" smooth="yes"/>
      <point x="1253" y="1504"/>
      <point x="1142" y="1554"/>
      <point x="859" y="1554" type="curve" smooth="yes"/>
      <point x="484" y="1554"/>
      <point x="301" y="1508"/>
      <point x="301" y="1183" type="curve" smooth="yes"/>
      <point x="301" y="1106"/>
      <point x="316" y="964"/>
      <point x="316" y="854" type="curve"/>
      <point x="167" y="854" type="line"/>
      <point x="167" y="704" type="line"/>
      <point x="319" y="704" type="line"/>
      <point x="319" y="302" type="line" smooth="yes"/>
      <point x="319" y="208"/>
      <point x="291" y="175"/>
      <point x="165" y="174" type="curve"/>
    </contour>
  </outline>
</glyph>
<glyph name="brokenbar" format="1">
  <advance width="577"/>
  <unicode hex="00A6"/>
  <outline>
    <contour>
      <point x="183" y="1647" type="line"/>
      <point x="183" y="822" type="line"/>
      <point x="409" y="822" type="line"/>
      <point x="409" y="1647" type="line"/>
    </contour>
    <contour>
      <point x="183" y="581" type="line"/>
      <point x="183" y="-244" type="line"/>
      <point x="409" y="-244" type="line"/>
      <point x="409" y="581" type="line"/>
    </contour>
  </outline>
</glyph>
<glyph name="copyright" format="1">
  <advance width="1859"/>
  <unicode hex="00A9"/>
  <outline>
    <contour>
      <point x="913" y="232" type="curve" smooth="yes"/>
      <point x="1253" y="232"/>
      <point x="1315" y="278"/>
      <point x="1315" y="552" type="curve" smooth="yes"/>
      <point x="1315" y="658" type="line"/>
      <point x="1174" y="658" type="line"/>
      <point x="1173" y="516" type="line" smooth="yes"/>
      <point x="1171" y="364"/>
      <point x="1144" y="353"/>
      <point x="939" y="353" type="curve" smooth="yes"/>
      <point x="726" y="353"/>
      <point x="687" y="378"/>
      <point x="687" y="504" type="curve" smooth="yes"/>
      <point x="686" y="1076" type="line" smooth="yes"/>
      <point x="686" y="1200"/>
      <point x="710" y="1213"/>
      <point x="939" y="1213" type="curve" smooth="yes"/>
      <point x="1150" y="1213"/>
      <point x="1171" y="1198"/>
      <point x="1173" y="1038" type="curve" smooth="yes"/>
      <point x="1174" y="910" type="line"/>
      <point x="1315" y="910" type="line"/>
      <point x="1313" y="1015" type="line" smooth="yes"/>
      <point x="1308" y="1302"/>
      <point x="1212" y="1334"/>
      <point x="913" y="1334" type="curve" smooth="yes"/>
      <point x="586" y="1334"/>
      <point x="531" y="1264"/>
      <point x="531" y="931" type="curve" smooth="yes"/>
      <point x="531" y="678" type="line" smooth="yes"/>
      <point x="531" y="294"/>
      <point x="603" y="232"/>
    </contour>
    <contour>
      <point x="921" y="16" type="curve" smooth="yes"/>
      <point x="551" y="16"/>
      <point x="234" y="140"/>
      <point x="234" y="598" type="curve" smooth="yes"/>
      <point x="234" y="927" type="line" smooth="yes"/>
      <point x="234" y="1416"/>
      <point x="553" y="1529"/>
      <point x="930" y="1529" type="curve" smooth="yes"/>
      <point x="1300" y="1529"/>
      <point x="1629" y="1419"/>
      <point x="1629" y="934" type="curve" smooth="yes"/>
      <point x="1629" y="591" type="line" smooth="yes"/>
      <point x="1629" y="128"/>
      <point x="1313" y="16"/>
    </contour>
    <contour>
      <point x="941" y="-97" type="curve" smooth="yes"/>
      <point x="1377" y="-97"/>
      <point x="1767" y="56"/>
      <point x="1767" y="598" type="curve" smooth="yes"/>
      <point x="1767" y="928" type="line" smooth="yes"/>
      <point x="1767" y="1488"/>
      <point x="1383" y="1644"/>
      <point x="932" y="1644" type="curve" smooth="yes"/>
      <point x="493" y="1644"/>
      <point x="96" y="1496"/>
      <point x="96" y="930" type="curve" smooth="yes"/>
      <point x="96" y="598" type="line" smooth="yes"/>
      <point x="96" y="62"/>
      <point x="483" y="-97"/>
    </contour>
  </outline>
</glyph>
<glyph name="logicalnot" format="1">
  <advance width="1226"/>
  <unicode hex="00AC"/>
  <outline>
    <contour>
      <point x="918" y="267" type="line"/>
      <point x="1075" y="267" type="line"/>
      <point x="1075" y="837" type="line"/>
      <point x="134" y="837" type="line"/>
      <point x="134" y="666" type="line"/>
      <point x="918" y="666" type="line"/>
    </contour>
  </outline>
</glyph>
<glyph name="uni00AD" format="1">
  <advance width="1076"/>
  <unicode hex="00AD"/>
  <outline>
    <contour>
      <point x="144" y="551" type="line"/>
      <point x="935" y="551" type="line"/>
      <point x="935" y="750" type="line"/>
      <point x="144" y="750" type="line"/>
    </contour>
  </outline>
</glyph>
<glyph name="registered" format="1">
  <advance width="1854"/>
  <unicode hex="00AE"/>
  <outline>
    <contour>
      <point x="591" y="269" type="line"/>
      <point x="745" y="269" type="line"/>
      <point x="744" y="737" type="line"/>
      <point x="959" y="737" type="line" smooth="yes"/>
      <point x="1098" y="737"/>
      <point x="1135" y="702"/>
      <point x="1133" y="549" type="curve" smooth="yes"/>
      <point x="1133" y="269" type="line"/>
      <point x="1286" y="269" type="line"/>
      <point x="1286" y="613" type="line" smooth="yes"/>
      <point x="1286" y="721"/>
      <point x="1239" y="780"/>
      <point x="1129" y="790" type="curve"/>
      <point x="1129" y="798" type="line"/>
      <point x="1238" y="815"/>
      <point x="1294" y="884"/>
      <point x="1294" y="1028" type="curve" smooth="yes"/>
      <point x="1294" y="1053" type="line" smooth="yes"/>
      <point x="1294" y="1272"/>
      <point x="1190" y="1307"/>
      <point x="933" y="1307" type="curve" smooth="yes"/>
      <point x="591" y="1307" type="line"/>
    </contour>
    <contour>
      <point x="920" y="16" type="curve" smooth="yes"/>
      <point x="549" y="16"/>
      <point x="232" y="140"/>
      <point x="232" y="598" type="curve" smooth="yes"/>
      <point x="232" y="927" type="line" smooth="yes"/>
      <point x="232" y="1416"/>
      <point x="551" y="1529"/>
      <point x="929" y="1529" type="curve" smooth="yes"/>
      <point x="1299" y="1529"/>
      <point x="1627" y="1419"/>
      <point x="1627" y="934" type="curve" smooth="yes"/>
      <point x="1627" y="591" type="line" smooth="yes"/>
      <point x="1627" y="128"/>
      <point x="1311" y="16"/>
    </contour>
    <contour>
      <point x="939" y="-97" type="curve" smooth="yes"/>
      <point x="1375" y="-97"/>
      <point x="1765" y="56"/>
      <point x="1765" y="598" type="curve" smooth="yes"/>
      <point x="1765" y="928" type="line" smooth="yes"/>
      <point x="1765" y="1488"/>
      <point x="1381" y="1644"/>
      <point x="930" y="1644" type="curve" smooth="yes"/>
      <point x="491" y="1644"/>
      <point x="94" y="1496"/>
      <point x="94" y="930" type="curve" smooth="yes"/>
      <point x="94" y="598" type="line" smooth="yes"/>
      <point x="94" y="62"/>
      <point x="481" y="-97"/>
    </contour>
    <contour>
      <point x="744" y="843" type="line"/>
      <point x="744" y="1195" type="line"/>
      <point x="956" y="1195" type="line" smooth="yes"/>
      <point x="1073" y="1195"/>
      <point x="1132" y="1189"/>
      <point x="1132" y="1050" type="curve" smooth="yes"/>
      <point x="1132" y="995" type="line" smooth="yes"/>
      <point x="1132" y="862"/>
      <point x="1097" y="843"/>
      <point x="925" y="843" type="curve" smooth="yes"/>
    </contour>
  </outline>
</glyph>
<glyph name="degree" format="1">
  <advance width="892"/>
  <unicode hex="00B0"/>
  <outline>
    <contour>
      <point x="447" y="1164" type="curve" smooth="yes"/>
      <point x="353" y="1164"/>
      <point x="292" y="1227"/>
      <point x="292" y="1328" type="curve" smooth="yes"/>
      <point x="292" y="1427"/>
      <point x="353" y="1490"/>
      <point x="447" y="1490" type="curve" smooth="yes"/>
      <point x="544" y="1490"/>
      <point x="604" y="1427"/>
      <point x="604" y="1328" type="curve" smooth="yes"/>
      <point x="604" y="1227"/>
      <point x="544" y="1164"/>
    </contour>
    <contour>
      <point x="447" y="1049" type="curve" smooth="yes"/>
      <point x="636" y="1049"/>
      <point x="755" y="1161"/>
      <point x="755" y="1328" type="curve" smooth="yes"/>
      <point x="755" y="1495"/>
      <point x="636" y="1607"/>
      <point x="447" y="1607" type="curve" smooth="yes"/>
      <point x="258" y="1607"/>
      <point x="140" y="1495"/>
      <point x="140" y="1328" type="curve" smooth="yes"/>
      <point x="140" y="1161"/>
      <point x="258" y="1049"/>
    </contour>
  </outline>
</glyph>
<glyph name="threesuperior" format="1">
  <advance width="1260"/>
  <unicode hex="00B3"/>
  <outline>
    <contour>
      <point x="647" y="441" type="curve" smooth="yes"/>
      <point x="920" y="441"/>
      <point x="1043" y="511"/>
      <point x="1043" y="757" type="curve" smooth="yes"/>
      <point x="1043" y="865"/>
      <point x="1033" y="960"/>
      <point x="939" y="987" type="curve"/>
      <point x="1031" y="1014"/>
      <point x="1041" y="1091"/>
      <point x="1041" y="1199" type="curve" smooth="yes"/>
      <point x="1041" y="1446"/>
      <point x="963" y="1523"/>
      <point x="646" y="1523" type="curve" smooth="yes"/>
      <point x="312" y="1523"/>
      <point x="231" y="1440"/>
      <point x="231" y="1177" type="curve" smooth="yes"/>
      <point x="231" y="1148" type="line"/>
      <point x="444" y="1148" type="line"/>
      <point x="445" y="1216" type="line" smooth="yes"/>
      <point x="448" y="1362"/>
      <point x="480" y="1381"/>
      <point x="646" y="1381" type="curve" smooth="yes"/>
      <point x="813" y="1381"/>
      <point x="838" y="1352"/>
      <point x="838" y="1235" type="curve" smooth="yes"/>
      <point x="838" y="1123"/>
      <point x="848" y="1052"/>
      <point x="793" y="1052" type="curve" smooth="yes"/>
      <point x="537" y="1052" type="line"/>
      <point x="537" y="930" type="line"/>
      <point x="793" y="930" type="line" smooth="yes"/>
      <point x="841" y="930"/>
      <point x="838" y="848"/>
      <point x="838" y="755" type="curve" smooth="yes"/>
      <point x="838" y="634"/>
      <point x="809" y="591"/>
      <point x="660" y="591" type="curve" smooth="yes"/>
      <point x="455" y="591"/>
      <point x="439" y="635"/>
      <point x="443" y="765" type="curve" smooth="yes"/>
      <point x="444" y="831" type="line"/>
      <point x="231" y="831" type="line"/>
      <point x="231" y="789" type="line" smooth="yes"/>
      <point x="231" y="539"/>
      <point x="317" y="441"/>
    </contour>
  </outline>
</glyph>
<glyph name="acute" format="1">
  <advance width="732"/>
  <unicode hex="00B4"/>
  <outline>
    <contour>
      <point x="346" y="1117" type="move" name="_top"/>
    </contour>
    <contour>
      <point x="146" y="1312" type="curve" smooth="yes"/>
      <point x="167" y="1320"/>
      <point x="529" y="1449"/>
      <point x="562" y="1466" type="curve" smooth="yes"/>
      <point x="614" y="1491"/>
      <point x="637" y="1538"/>
      <point x="637" y="1581" type="curve" smooth="yes"/>
      <point x="637" y="1637"/>
      <point x="597" y="1691"/>
      <point x="527" y="1691" type="curve" smooth="yes"/>
      <point x="495" y="1691"/>
      <point x="465" y="1675"/>
      <point x="439" y="1655" type="curve" smooth="yes"/>
      <point x="395" y="1620"/>
      <point x="142" y="1363"/>
      <point x="125" y="1343" type="curve" smooth="yes"/>
      <point x="118" y="1335"/>
      <point x="119" y="1324"/>
      <point x="123" y="1317" type="curve" smooth="yes"/>
      <point x="127" y="1311"/>
      <point x="137" y="1308"/>
    </contour>
  </outline>
</glyph>
<glyph name="cedilla" format="1">
  <advance width="757"/>
  <unicode hex="00B8"/>
  <outline>
    <contour>
      <point x="402" y="0" type="move" name="_bot"/>
    </contour>
    <contour>
      <point x="353" y="11" type="line"/>
      <point x="315" y="-134" type="line" smooth="yes"/>
      <point x="293" y="-216"/>
      <point x="281" y="-264"/>
      <point x="277" y="-280" type="curve"/>
      <point x="370" y="-280"/>
      <point x="416" y="-309"/>
      <point x="416" y="-366" type="curve" smooth="yes"/>
      <point x="416" y="-405"/>
      <point x="391" y="-419"/>
      <point x="357" y="-419" type="curve" smooth="yes"/>
      <point x="298" y="-419"/>
      <point x="213" y="-377"/>
      <point x="195" y="-369" type="curve"/>
      <point x="147" y="-460" type="line"/>
      <point x="210" y="-515"/>
      <point x="302" y="-543"/>
      <point x="387" y="-543" type="curve" smooth="yes"/>
      <point x="515" y="-543"/>
      <point x="633" y="-481"/>
      <point x="633" y="-354" type="curve" smooth="yes"/>
      <point x="633" y="-203"/>
      <point x="545" y="-175"/>
      <point x="414" y="-157" type="curve"/>
      <point x="463" y="11" type="line"/>
    </contour>
  </outline>
</glyph>
<glyph name="onehalf" format="1">
  <advance width="2420"/>
  <unicode hex="00BD"/>
  <outline>
    <contour>
      <point x="1491" y="0" type="line"/>
      <point x="2277" y="0" type="line"/>
      <point x="2277" y="149" type="line"/>
      <point x="1687" y="149" type="line"/>
      <point x="1687" y="265"/>
      <point x="1700" y="339"/>
      <point x="1905" y="404" type="curve" smooth="yes"/>
      <point x="2076" y="462"/>
      <point x="2299" y="500"/>
      <point x="2299" y="742" type="curve" smooth="yes"/>
      <point x="2299" y="1008"/>
      <point x="2154" y="1075"/>
      <point x="1892" y="1075" type="curve" smooth="yes"/>
      <point x="1649" y="1075"/>
      <point x="1484" y="1014"/>
      <point x="1484" y="744" type="curve"/>
      <point x="1485" y="702" type="line"/>
      <point x="1696" y="719" type="line"/>
      <point x="1696" y="795" type="line" smooth="yes"/>
      <point x="1696" y="863"/>
      <point x="1715" y="917"/>
      <point x="1898" y="916" type="curve" smooth="yes"/>
      <point x="2068" y="915"/>
      <point x="2096" y="879"/>
      <point x="2096" y="812" type="curve" smooth="yes"/>
      <point x="2096" y="729" type="line" smooth="yes"/>
      <point x="2096" y="640"/>
      <point x="2031" y="618"/>
      <point x="1862" y="570" type="curve" smooth="yes"/>
      <point x="1587" y="488"/>
      <point x="1491" y="397"/>
      <point x="1491" y="135" type="curve" smooth="yes"/>
    </contour>
    <contour>
      <point x="268" y="464" type="line"/>
      <point x="474" y="464" type="line"/>
      <point x="474" y="1504" type="line"/>
      <point x="342" y="1504" type="line"/>
      <point x="285" y="1469"/>
      <point x="214" y="1449"/>
      <point x="124" y="1449" type="curve"/>
      <point x="124" y="1322" type="line"/>
      <point x="268" y="1322" type="line"/>
    </contour>
    <contour>
      <point x="590" y="0" type="line"/>
      <point x="747" y="0" type="line"/>
      <point x="1413" y="1535" type="line"/>
      <point x="1158" y="1535" type="line"/>
    </contour>
  </outline>
</glyph>
<glyph name="threequarters" format="1">
  <advance width="2650"/>
  <unicode hex="00BE"/>
  <outline>
    <contour>
      <point x="2274" y="0" type="line"/>
      <point x="2480" y="0" type="line"/>
      <point x="2480" y="682" type="line"/>
      <point x="2274" y="682" type="line"/>
      <point x="2274" y="402" type="line"/>
      <point x="1919" y="402" type="line"/>
      <point x="1919" y="418" type="line"/>
      <point x="2241" y="1094" type="line"/>
      <point x="2045" y="1094" type="line"/>
      <point x="1695" y="407" type="line"/>
      <point x="1695" y="239" type="line"/>
      <point x="2274" y="239" type="line"/>
    </contour>
    <contour>
      <point x="1009" y="0" type="line"/>
      <point x="1166" y="0" type="line"/>
      <point x="1832" y="1535" type="line"/>
      <point x="1577" y="1535" type="line"/>
    </contour>
    <contour>
      <point x="584" y="432" type="curve" smooth="yes"/>
      <point x="857" y="432"/>
      <point x="980" y="502"/>
      <point x="980" y="748" type="curve" smooth="yes"/>
      <point x="980" y="856"/>
      <point x="970" y="951"/>
      <point x="876" y="978" type="curve"/>
      <point x="968" y="1006"/>
      <point x="978" y="1082"/>
      <point x="978" y="1190" type="curve" smooth="yes"/>
      <point x="978" y="1437"/>
      <point x="900" y="1514"/>
      <point x="583" y="1514" type="curve" smooth="yes"/>
      <point x="249" y="1514"/>
      <point x="169" y="1431"/>
      <point x="169" y="1168" type="curve" smooth="yes"/>
      <point x="169" y="1139" type="line"/>
      <point x="381" y="1139" type="line"/>
      <point x="382" y="1207" type="line" smooth="yes"/>
      <point x="386" y="1354"/>
      <point x="418" y="1372"/>
      <point x="583" y="1372" type="curve" smooth="yes"/>
      <point x="751" y="1372"/>
      <point x="775" y="1343"/>
      <point x="775" y="1227" type="curve" smooth="yes"/>
      <point x="775" y="1114"/>
      <point x="785" y="1044"/>
      <point x="730" y="1044" type="curve" smooth="yes"/>
      <point x="475" y="1044" type="line"/>
      <point x="475" y="922" type="line"/>
      <point x="730" y="922" type="line" smooth="yes"/>
      <point x="779" y="922"/>
      <point x="775" y="839"/>
      <point x="775" y="746" type="curve" smooth="yes"/>
      <point x="775" y="625"/>
      <point x="747" y="583"/>
      <point x="597" y="583" type="curve" smooth="yes"/>
      <point x="393" y="583"/>
      <point x="377" y="626"/>
      <point x="381" y="757" type="curve"/>
      <point x="381" y="822" type="line"/>
      <point x="169" y="822" type="line"/>
      <point x="169" y="780" type="line" smooth="yes"/>
      <point x="169" y="530"/>
      <point x="255" y="432"/>
    </contour>
  </outline>
</glyph>
<glyph name="AE" format="1">
  <advance width="2059"/>
  <unicode hex="00C6"/>
  <outline>
    <contour>
      <point x="1154" y="1501" type="move" name="top"/>
    </contour>
    <contour>
      <point x="89" y="0" type="line"/>
      <point x="365" y="0" type="line"/>
      <point x="571" y="377" type="line"/>
      <point x="1052" y="377" type="line"/>
      <point x="1052" y="0" type="line"/>
      <point x="1932" y="0" type="line"/>
      <point x="1932" y="177" type="line"/>
      <point x="1300" y="177" type="line"/>
      <point x="1300" y="699" type="line"/>
      <point x="1813" y="699" type="line"/>
      <point x="1813" y="877" type="line"/>
      <point x="1300" y="877" type="line"/>
      <point x="1300" y="1327" type="line"/>
      <point x="1915" y="1327" type="line"/>
      <point x="1915" y="1504" type="line"/>
      <point x="908" y="1504" type="line"/>
    </contour>
    <contour>
      <point x="638" y="530" type="line"/>
      <point x="1052" y="1322" type="line"/>
      <point x="1052" y="530" type="line"/>
    </contour>
  </outline>
</glyph>
<glyph name="multiply" format="1">
  <advance width="1015"/>
  <unicode hex="00D7"/>
  <outline>
    <contour>
      <point x="277" y="251" type="curve"/>
      <point x="507" y="504" type="line"/>
      <point x="737" y="251" type="line"/>
      <point x="878" y="414" type="line"/>
      <point x="651" y="667" type="line"/>
      <point x="878" y="921" type="line"/>
      <point x="737" y="1083" type="line"/>
      <point x="507" y="830" type="line"/>
      <point x="277" y="1083" type="line"/>
      <point x="218" y="1020"/>
      <point x="160" y="946"/>
      <point x="136" y="921" type="curve"/>
      <point x="324" y="718"/>
      <point x="356" y="674"/>
      <point x="363" y="667" type="curve"/>
      <point x="136" y="414" type="line"/>
      <point x="195" y="351"/>
      <point x="253" y="276"/>
    </contour>
  </outline>
</glyph>
<glyph name="Oslash" format="1">
  <advance width="1735"/>
  <unicode hex="00D8"/>
  <outline>
    <component base="O"/>
    <contour>
      <point x="852" y="1595" type="move" name="top"/>
    </contour>
    <contour>
      <point x="1162" y="1324" type="line"/>
      <point x="1358" y="1633" type="line"/>
      <point x="1235" y="1705" type="line"/>
      <point x="1034" y="1388" type="line"/>
    </contour>
    <contour>
      <point x="266" y="-169" type="line"/>
      <point x="436" y="103" type="line"/>
      <point x="320" y="182" type="line"/>
      <point x="147" y="-95" type="line"/>
    </contour>
  </outline>
</glyph>
<glyph name="Thorn" format="1">
  <advance width="1341"/>
  <unicode hex="00DE"/>
  <outline>
    <contour>
      <point x="179" y="0" type="line"/>
      <point x="419" y="0" type="line"/>
      <point x="419" y="366" type="line"/>
      <point x="629" y="366" type="line" smooth="yes"/>
      <point x="872" y="366"/>
      <point x="1220" y="343"/>
      <point x="1220" y="807" type="curve" smooth="yes"/>
      <point x="1220" y="883" type="line"/>
      <point x="1213" y="1236"/>
      <point x="1063" y="1301"/>
      <point x="653" y="1301" type="curve" smooth="yes"/>
      <point x="419" y="1301" type="line"/>
      <point x="419" y="1504" type="line"/>
      <point x="179" y="1504" type="line"/>
    </contour>
    <contour>
      <point x="419" y="542" type="line"/>
      <point x="419" y="1128" type="line"/>
      <point x="644" y="1128" type="line" smooth="yes"/>
      <point x="943" y="1128"/>
      <point x="981" y="1067"/>
      <point x="981" y="832" type="curve" smooth="yes"/>
      <point x="981" y="656"/>
      <point x="977" y="542"/>
      <point x="726" y="542" type="curve" smooth="yes"/>
    </contour>
  </outline>
</glyph>
<glyph name="germandbls" format="1">
  <advance width="1293"/>
  <unicode hex="00DF"/>
  <outline>
    <contour>
      <point x="166" y="-188" type="line"/>
      <point x="394" y="-174" type="line"/>
      <point x="394" y="1118" type="line"/>
      <point x="393" y="1329"/>
      <point x="445" y="1340"/>
      <point x="633" y="1340" type="curve" smooth="yes"/>
      <point x="809" y="1340"/>
      <point x="855" y="1310"/>
      <point x="855" y="1168" type="curve" smooth="yes"/>
      <point x="855" y="1042"/>
      <point x="848" y="897"/>
      <point x="767" y="897" type="curve" smooth="yes"/>
      <point x="539" y="897" type="line"/>
      <point x="539" y="739" type="line"/>
      <point x="767" y="738" type="line" smooth="yes"/>
      <point x="919" y="738"/>
      <point x="927" y="636"/>
      <point x="921" y="435" type="curve" smooth="yes"/>
      <point x="916" y="217"/>
      <point x="884" y="164"/>
      <point x="732" y="164" type="curve" smooth="yes"/>
      <point x="510" y="166" type="line"/>
      <point x="510" y="-5" type="line"/>
      <point x="739" y="-5" type="line" smooth="yes"/>
      <point x="977" y="-5"/>
      <point x="1150" y="81"/>
      <point x="1150" y="362" type="curve" smooth="yes"/>
      <point x="1150" y="482" type="line" smooth="yes"/>
      <point x="1150" y="742"/>
      <point x="1038" y="823"/>
      <point x="907" y="833" type="curve"/>
      <point x="1017" y="848"/>
      <point x="1071" y="952"/>
      <point x="1071" y="1149" type="curve" smooth="yes"/>
      <point x="1071" y="1422"/>
      <point x="941" y="1510"/>
      <point x="633" y="1510" type="curve" smooth="yes"/>
      <point x="314" y="1510"/>
      <point x="166" y="1435"/>
      <point x="166" y="1143" type="curve" smooth="yes"/>
    </contour>
  </outline>
</glyph>
<glyph name="ae" format="1">
  <advance width="1823"/>
  <unicode hex="00E6"/>
  <outline>
    <contour>
      <point x="878" y="1117" type="move" name="top"/>
    </contour>
    <contour>
      <point x="481" y="-18" type="curve" smooth="yes"/>
      <point x="680" y="-18"/>
      <point x="835" y="27"/>
      <point x="903" y="151" type="curve"/>
      <point x="965" y="50"/>
      <point x="1066" y="-18"/>
      <point x="1290" y="-18" type="curve" smooth="yes"/>
      <point x="1503" y="-18"/>
      <point x="1609" y="13"/>
      <point x="1640" y="172" type="curve" smooth="yes"/>
      <point x="1650" y="208"/>
      <point x="1655" y="274"/>
      <point x="1657" y="331" type="curve"/>
      <point x="1462" y="356" type="line"/>
      <point x="1456" y="300"/>
      <point x="1461" y="222"/>
      <point x="1442" y="189" type="curve" smooth="yes"/>
      <point x="1424" y="157"/>
      <point x="1375" y="139"/>
      <point x="1275" y="139" type="curve" smooth="yes"/>
      <point x="1157" y="139"/>
      <point x="1089" y="155"/>
      <point x="1058" y="193" type="curve" smooth="yes"/>
      <point x="1027" y="232"/>
      <point x="1025" y="338"/>
      <point x="1025" y="557" type="curve"/>
      <point x="1681" y="556" type="line"/>
      <point x="1681" y="620"/>
      <point x="1680" y="734"/>
      <point x="1678" y="782" type="curve" smooth="yes"/>
      <point x="1664" y="1089"/>
      <point x="1575" y="1156"/>
      <point x="1264" y="1156" type="curve" smooth="yes"/>
      <point x="1089" y="1156"/>
      <point x="961" y="1117"/>
      <point x="924" y="1025" type="curve"/>
      <point x="901" y="1125"/>
      <point x="750" y="1156"/>
      <point x="607" y="1156" type="curve" smooth="yes"/>
      <point x="365" y="1156"/>
      <point x="192" y="1129"/>
      <point x="192" y="894" type="curve" smooth="yes"/>
      <point x="192" y="875"/>
      <point x="193" y="857"/>
      <point x="195" y="838" type="curve"/>
      <point x="385" y="836" type="line"/>
      <point x="388" y="897"/>
      <point x="384" y="951"/>
      <point x="408" y="972" type="curve" smooth="yes"/>
      <point x="431" y="993"/>
      <point x="487" y="999"/>
      <point x="595" y="999" type="curve" smooth="yes"/>
      <point x="736" y="999"/>
      <point x="791" y="981"/>
      <point x="791" y="921" type="curve" smooth="yes"/>
      <point x="791" y="627" type="line"/>
      <point x="409" y="627"/>
      <point x="131" y="605"/>
      <point x="131" y="358" type="curve" smooth="yes"/>
      <point x="131" y="87"/>
      <point x="211" y="-18"/>
    </contour>
    <contour>
      <point x="519" y="139" type="curve" smooth="yes"/>
      <point x="440" y="139"/>
      <point x="392" y="146"/>
      <point x="372" y="173" type="curve" smooth="yes"/>
      <point x="352" y="201"/>
      <point x="351" y="294"/>
      <point x="351" y="387" type="curve" smooth="yes"/>
      <point x="351" y="447"/>
      <point x="400" y="482"/>
      <point x="585" y="495" type="curve" smooth="yes"/>
      <point x="639" y="499"/>
      <point x="711" y="500"/>
      <point x="791" y="500" type="curve"/>
      <point x="791" y="306" type="line" smooth="yes"/>
      <point x="791" y="209"/>
      <point x="717" y="139"/>
    </contour>
    <contour>
      <point x="1025" y="674" type="line"/>
      <point x="1028" y="784"/>
      <point x="1024" y="891"/>
      <point x="1050" y="936" type="curve" smooth="yes"/>
      <point x="1077" y="981"/>
      <point x="1140" y="999"/>
      <point x="1263" y="999" type="curve" smooth="yes"/>
      <point x="1388" y="999"/>
      <point x="1432" y="982"/>
      <point x="1438" y="911" type="curve" smooth="yes"/>
      <point x="1443" y="844"/>
      <point x="1446" y="744"/>
      <point x="1447" y="674" type="curve"/>
    </contour>
  </outline>
</glyph>
<glyph name="eth" format="1">
  <advance width="1299"/>
  <unicode hex="00F0"/>
  <outline>
    <contour>
      <point x="661" y="-26" type="curve" smooth="yes"/>
      <point x="1036" y="-26"/>
      <point x="1145" y="90"/>
      <point x="1145" y="498" type="curve" smooth="yes"/>
      <point x="1145" y="1003"/>
      <point x="1129" y="1259"/>
      <point x="942" y="1396" type="curve"/>
      <point x="1101" y="1549" type="line"/>
      <point x="1039" y="1617" type="line"/>
      <point x="860" y="1445" type="line"/>
      <point x="747" y="1499"/>
      <point x="590" y="1528"/>
      <point x="371" y="1548" type="curve"/>
      <point x="332" y="1400" type="line"/>
      <point x="528" y="1375"/>
      <point x="651" y="1364"/>
      <point x="734" y="1326" type="curve"/>
      <point x="581" y="1179" type="line"/>
      <point x="642" y="1111" type="line"/>
      <point x="809" y="1270" type="line"/>
      <point x="873" y="1201"/>
      <point x="898" y="1079"/>
      <point x="910" y="853" type="curve"/>
      <point x="893" y="940"/>
      <point x="769" y="983"/>
      <point x="567" y="983" type="curve" smooth="yes"/>
      <point x="252" y="983"/>
      <point x="144" y="862"/>
      <point x="142" y="594" type="curve" smooth="yes"/>
      <point x="142" y="593"/>
      <point x="141" y="401"/>
      <point x="141" y="400" type="curve" smooth="yes"/>
      <point x="141" y="66"/>
      <point x="252" y="-26"/>
    </contour>
    <contour>
      <point x="659" y="121" type="curve" smooth="yes"/>
      <point x="416" y="121"/>
      <point x="372" y="127"/>
      <point x="372" y="217" type="curve" smooth="yes"/>
      <point x="373" y="729" type="line" smooth="yes"/>
      <point x="373" y="825"/>
      <point x="401" y="837"/>
      <point x="661" y="837" type="curve" smooth="yes"/>
      <point x="890" y="837"/>
      <point x="910" y="783"/>
      <point x="910" y="674" type="curve" smooth="yes"/>
      <point x="910" y="208" type="line" smooth="yes"/>
      <point x="910" y="135"/>
      <point x="900" y="121"/>
    </contour>
  </outline>
</glyph>
<glyph name="divide" format="1">
  <advance width="771"/>
  <unicode hex="00F7"/>
  <outline>
    <contour>
      <point x="388" y="134" type="curve" smooth="yes"/>
      <point x="474" y="134"/>
      <point x="528" y="203"/>
      <point x="528" y="288" type="curve" smooth="yes"/>
      <point x="528" y="366"/>
      <point x="472" y="442"/>
      <point x="402" y="442" type="curve" smooth="yes"/>
      <point x="301" y="442"/>
      <point x="248" y="383"/>
      <point x="248" y="288" type="curve" smooth="yes"/>
      <point x="248" y="193"/>
      <point x="307" y="134"/>
    </contour>
    <contour>
      <point x="44" y="614" type="line"/>
      <point x="731" y="614" type="line"/>
      <point x="731" y="753" type="line"/>
      <point x="44" y="753" type="line"/>
    </contour>
    <contour>
      <point x="388" y="925" type="curve" smooth="yes"/>
      <point x="476" y="925"/>
      <point x="528" y="991"/>
      <point x="528" y="1079" type="curve" smooth="yes"/>
      <point x="528" y="1157"/>
      <point x="472" y="1233"/>
      <point x="402" y="1233" type="curve" smooth="yes"/>
      <point x="301" y="1233"/>
      <point x="248" y="1175"/>
      <point x="248" y="1079" type="curve" smooth="yes"/>
      <point x="248" y="984"/>
      <point x="306" y="925"/>
    </contour>
  </outline>
</glyph>
<glyph name="oslash" format="1">
  <advance width="1631"/>
  <unicode hex="00F8"/>
  <outline>
    <component base="o"/>
    <contour>
      <point x="616" y="1135" type="move" name="top"/>
    </contour>
    <contour>
      <point x="111" y="2" type="line"/>
      <point x="1169" y="1078" type="line"/>
      <point x="1111" y="1136" type="line"/>
      <point x="53" y="60" type="line"/>
    </contour>
  </outline>
</glyph>
<glyph name="thorn" format="1">
  <advance width="1251"/>
  <unicode hex="00FE"/>
  <outline>
    <contour>
      <point x="163" y="-402" type="line"/>
      <point x="397" y="-388" type="line"/>
      <point x="397" y="101" type="line"/>
      <point x="439" y="19"/>
      <point x="562" y="-24"/>
      <point x="753" y="-24" type="curve" smooth="yes"/>
      <point x="1049" y="-24"/>
      <point x="1105" y="122"/>
      <point x="1105" y="508" type="curve" smooth="yes"/>
      <point x="1105" y="597" type="line" smooth="yes"/>
      <point x="1105" y="943"/>
      <point x="1090" y="1188"/>
      <point x="736" y="1188" type="curve" smooth="yes"/>
      <point x="543" y="1188"/>
      <point x="429" y="1148"/>
      <point x="396" y="1065" type="curve"/>
      <point x="396" y="1582" type="line"/>
      <point x="163" y="1569" type="line"/>
    </contour>
    <contour>
      <point x="641" y="151" type="curve" smooth="yes"/>
      <point x="441" y="151"/>
      <point x="394" y="152"/>
      <point x="394" y="335" type="curve" smooth="yes"/>
      <point x="394" y="419"/>
      <point x="395" y="687"/>
      <point x="395" y="838" type="curve" smooth="yes"/>
      <point x="395" y="997"/>
      <point x="411" y="1015"/>
      <point x="660" y="1015" type="curve" smooth="yes"/>
      <point x="848" y="1015"/>
      <point x="875" y="1010"/>
      <point x="875" y="814" type="curve" smooth="yes"/>
      <point x="875" y="367" type="line" smooth="yes"/>
      <point x="875" y="191"/>
      <point x="847" y="151"/>
    </contour>
  </outline>
</glyph>
<glyph name="dotlessi" format="1">
  <advance width="546"/>
  <unicode hex="0131"/>
  <outline>
    <contour>
      <point x="286" y="0" type="move" name="ogonek"/>
    </contour>
    <contour>
      <point x="275" y="1117" type="move" name="top"/>
    </contour>
    <contour>
      <point x="165" y="1123" type="line"/>
      <point x="165" y="0" type="line"/>
      <point x="399" y="0" type="line"/>
      <point x="399" y="1123" type="line"/>
    </contour>
  </outline>
</glyph>
<glyph name="oe" format="1">
  <advance width="2220"/>
  <unicode hex="0153"/>
  <outline>
    <component base="e" xOffset="729"/>
    <component base="o"/>
    <contour>
      <point x="1115" y="1300" type="move" name="top"/>
    </contour>
  </outline>
</glyph>
<glyph name="dotlessj" format="1">
  <advance width="641"/>
  <unicode hex="0237"/>
  <outline>
    <contour>
      <point x="356" y="1117" type="move" name="top"/>
    </contour>
    <contour>
      <point x="238" y="1123" type="line"/>
      <point x="238" y="-64" type="line" smooth="yes"/>
      <point x="238" y="-172"/>
      <point x="139" y="-155"/>
      <point x="67" y="-158" type="curve"/>
      <point x="74" y="-295" type="line"/>
      <point x="117" y="-302"/>
      <point x="158" y="-305"/>
      <point x="196" y="-305" type="curve" smooth="yes"/>
      <point x="404" y="-305"/>
      <point x="472" y="-200"/>
      <point x="472" y="65" type="curve" smooth="yes"/>
      <point x="472" y="1123" type="line"/>
    </contour>
  </outline>
</glyph>
<glyph name="circumflex" format="1">
  <advance width="853"/>
  <unicode hex="02C6"/>
  <outline>
    <contour>
      <point x="440" y="1117" type="move" name="_top"/>
    </contour>
    <contour>
      <point x="737" y="1317" type="curve" smooth="yes"/>
      <point x="754" y="1331"/>
      <point x="754" y="1356"/>
      <point x="743" y="1375" type="curve" smooth="yes"/>
      <point x="544" y="1697" type="line" smooth="yes"/>
      <point x="517" y="1737"/>
      <point x="483" y="1751"/>
      <point x="445" y="1751" type="curve" smooth="yes"/>
      <point x="407" y="1751"/>
      <point x="373" y="1737"/>
      <point x="346" y="1697" type="curve" smooth="yes"/>
      <point x="147" y="1375" type="line" smooth="yes"/>
      <point x="135" y="1355"/>
      <point x="136" y="1331"/>
      <point x="153" y="1317" type="curve" smooth="yes"/>
      <point x="168" y="1304"/>
      <point x="193" y="1301"/>
      <point x="207" y="1316" type="curve" smooth="yes"/>
      <point x="445" y="1551" type="line"/>
      <point x="683" y="1316" type="line" smooth="yes"/>
      <point x="697" y="1301"/>
      <point x="723" y="1303"/>
    </contour>
  </outline>
</glyph>
<glyph name="uni02C9" format="1">
  <advance width="740"/>
  <unicode hex="02C9"/>
  <outline>
    <contour>
      <point x="383" y="1117" type="move" name="_top"/>
    </contour>
    <contour>
      <point x="72" y="1486" type="line"/>
      <point x="72" y="1345" type="line"/>
      <point x="693" y="1345" type="line"/>
      <point x="693" y="1486" type="line"/>
    </contour>
  </outline>
</glyph>
<glyph name="dotaccent" format="1">
  <advance width="515"/>
  <unicode hex="02D9"/>
  <outline>
    <contour>
      <point x="267" y="1117" type="move" name="_top"/>
    </contour>
    <contour>
      <point x="267" y="1396" type="curve" smooth="yes"/>
      <point x="347" y="1396"/>
      <point x="417" y="1436"/>
      <point x="417" y="1541" type="curve" smooth="yes"/>
      <point x="417" y="1643"/>
      <point x="348" y="1685"/>
      <point x="267" y="1685" type="curve" smooth="yes"/>
      <point x="187" y="1685"/>
      <point x="117" y="1646"/>
      <point x="117" y="1541" type="curve" smooth="yes"/>
      <point x="117" y="1439"/>
      <point x="185" y="1396"/>
    </contour>
  </outline>
</glyph>
<glyph name="ogonek" format="1">
  <advance width="752"/>
  <unicode hex="02DB"/>
  <outline>
    <contour>
      <point x="447" y="0" type="move" name="_ogonek"/>
    </contour>
    <contour>
      <point x="396" y="0" type="line"/>
      <point x="231" y="-159"/>
      <point x="137" y="-261"/>
      <point x="137" y="-399" type="curve" smooth="yes"/>
      <point x="137" y="-512"/>
      <point x="230" y="-558"/>
      <point x="340" y="-558" type="curve" smooth="yes"/>
      <point x="450" y="-558"/>
      <point x="574" y="-513"/>
      <point x="615" y="-471" type="curve"/>
      <point x="579" y="-376" type="line"/>
      <point x="545" y="-391"/>
      <point x="478" y="-418"/>
      <point x="424" y="-418" type="curve" smooth="yes"/>
      <point x="374" y="-418"/>
      <point x="333" y="-395"/>
      <point x="333" y="-325" type="curve" smooth="yes"/>
      <point x="333" y="-224"/>
      <point x="405" y="-104"/>
      <point x="509" y="0" type="curve"/>
    </contour>
  </outline>
</glyph>
<glyph name="tilde" format="1">
  <advance width="1060"/>
  <unicode hex="02DC"/>
  <outline>
    <contour>
      <point x="533" y="1117" type="move" name="_top"/>
    </contour>
    <contour>
      <point x="655" y="1292" type="curve" smooth="yes"/>
      <point x="764" y="1292"/>
      <point x="852" y="1358"/>
      <point x="889" y="1496" type="curve"/>
      <point x="847" y="1555" type="line"/>
      <point x="772" y="1491"/>
      <point x="719" y="1468"/>
      <point x="664" y="1468" type="curve" smooth="yes"/>
      <point x="587" y="1468"/>
      <point x="526" y="1545"/>
      <point x="396" y="1545" type="curve" smooth="yes"/>
      <point x="290" y="1545"/>
      <point x="209" y="1497"/>
      <point x="169" y="1369" type="curve"/>
      <point x="205" y="1316" type="line"/>
      <point x="255" y="1365"/>
      <point x="305" y="1386"/>
      <point x="358" y="1386" type="curve" smooth="yes"/>
      <point x="455" y="1386"/>
      <point x="545" y="1292"/>
    </contour>
  </outline>
</glyph>
<glyph name="hungarumlaut" format="1">
  <advance width="1191"/>
  <unicode hex="02DD"/>
  <outline>
    <contour>
      <point x="416" y="1117" type="move" name="_top"/>
    </contour>
    <contour>
      <point x="144" y="1333" type="curve" smooth="yes"/>
      <point x="165" y="1341"/>
      <point x="526" y="1471"/>
      <point x="559" y="1488" type="curve" smooth="yes"/>
      <point x="611" y="1513"/>
      <point x="634" y="1560"/>
      <point x="634" y="1602" type="curve" smooth="yes"/>
      <point x="634" y="1659"/>
      <point x="594" y="1713"/>
      <point x="524" y="1713" type="curve" smooth="yes"/>
      <point x="492" y="1713"/>
      <point x="462" y="1697"/>
      <point x="436" y="1677" type="curve" smooth="yes"/>
      <point x="392" y="1642"/>
      <point x="139" y="1385"/>
      <point x="122" y="1365" type="curve" smooth="yes"/>
      <point x="119" y="1361"/>
      <point x="119" y="1341"/>
      <point x="121" y="1339" type="curve" smooth="yes"/>
      <point x="123" y="1336"/>
      <point x="140" y="1332"/>
    </contour>
    <contour>
      <point x="609" y="1333" type="curve" smooth="yes"/>
      <point x="630" y="1341"/>
      <point x="991" y="1471"/>
      <point x="1024" y="1488" type="curve" smooth="yes"/>
      <point x="1076" y="1513"/>
      <point x="1100" y="1560"/>
      <point x="1100" y="1602" type="curve" smooth="yes"/>
      <point x="1100" y="1659"/>
      <point x="1059" y="1713"/>
      <point x="989" y="1713" type="curve" smooth="yes"/>
      <point x="957" y="1713"/>
      <point x="927" y="1697"/>
      <point x="901" y="1677" type="curve" smooth="yes"/>
      <point x="857" y="1642"/>
      <point x="604" y="1385"/>
      <point x="588" y="1365" type="curve" smooth="yes"/>
      <point x="584" y="1361"/>
      <point x="584" y="1341"/>
      <point x="586" y="1339" type="curve" smooth="yes"/>
      <point x="588" y="1336"/>
      <point x="606" y="1332"/>
    </contour>
  </outline>
</glyph>
<glyph name="uni0307" format="1">
  <advance width="513"/>
  <unicode hex="0307"/>
  <outline>
    <contour>
      <point x="256" y="1117" type="move" name="_top"/>
    </contour>
    <contour>
      <point x="149" y="1610" type="curve" smooth="yes"/>
      <point x="149" y="1592"/>
      <point x="158" y="1385"/>
      <point x="168" y="1385" type="curve" smooth="yes"/>
      <point x="179" y="1385"/>
      <point x="367" y="1394"/>
      <point x="367" y="1412" type="curve" smooth="yes"/>
      <point x="367" y="1430"/>
      <point x="356" y="1638"/>
      <point x="346" y="1638" type="curve" smooth="yes"/>
      <point x="336" y="1638"/>
      <point x="149" y="1629"/>
    </contour>
  </outline>
</glyph>
<glyph name="breveinvertedcomb" format="1">
  <advance width="896"/>
  <unicode hex="0311"/>
  <outline>
    <contour>
      <point x="487" y="1117" type="move" name="_top"/>
    </contour>
    <contour>
      <point x="167" y="1299" type="curve"/>
      <point x="324" y="1299" type="line"/>
      <point x="324" y="1418"/>
      <point x="370" y="1473"/>
      <point x="471" y="1473" type="curve" smooth="yes"/>
      <point x="571" y="1473"/>
      <point x="618" y="1418"/>
      <point x="618" y="1299" type="curve"/>
      <point x="774" y="1299" type="line"/>
      <point x="774" y="1517"/>
      <point x="679" y="1617"/>
      <point x="471" y="1617" type="curve" smooth="yes"/>
      <point x="262" y="1617"/>
      <point x="167" y="1517"/>
    </contour>
  </outline>
</glyph>
<glyph name="commaaccent" format="1">
  <advance width="553"/>
  <unicode hex="0326"/>
  <outline>
    <contour>
      <point x="292" y="0" type="move" name="_bot"/>
    </contour>
    <contour>
      <point x="148" y="-697" type="line"/>
      <point x="332" y="-697"/>
      <point x="468" y="-534"/>
      <point x="468" y="-356" type="curve" smooth="yes"/>
      <point x="468" y="-225"/>
      <point x="408" y="-156"/>
      <point x="299" y="-156" type="curve" smooth="yes"/>
      <point x="201" y="-156"/>
      <point x="133" y="-218"/>
      <point x="133" y="-310" type="curve" smooth="yes"/>
      <point x="133" y="-404"/>
      <point x="184" y="-465"/>
      <point x="278" y="-471" type="curve"/>
      <point x="278" y="-561"/>
      <point x="225" y="-628"/>
      <point x="148" y="-630" type="curve"/>
    </contour>
  </outline>
</glyph>
<glyph name="Omega" format="1">
  <advance width="1774"/>
  <unicode hex="03A9"/>
  <outline>
    <contour>
      <point x="103" y="0" type="line"/>
      <point x="802" y="0" type="line"/>
      <point x="803" y="147" type="line"/>
      <point x="519" y="268"/>
      <point x="370" y="521"/>
      <point x="370" y="790" type="curve" smooth="yes"/>
      <point x="370" y="1140"/>
      <point x="625" y="1306"/>
      <point x="887" y="1306" type="curve" smooth="yes"/>
      <point x="1150" y="1306"/>
      <point x="1404" y="1140"/>
      <point x="1404" y="790" type="curve" smooth="yes"/>
      <point x="1404" y="521"/>
      <point x="1256" y="268"/>
      <point x="971" y="147" type="curve"/>
      <point x="972" y="0" type="line"/>
      <point x="1670" y="0" type="line"/>
      <point x="1670" y="156" type="line"/>
      <point x="1251" y="156" type="line"/>
      <point x="1516" y="307"/>
      <point x="1644" y="545"/>
      <point x="1644" y="791" type="curve" smooth="yes"/>
      <point x="1644" y="1272"/>
      <point x="1272" y="1507"/>
      <point x="887" y="1507" type="curve" smooth="yes"/>
      <point x="501" y="1507"/>
      <point x="130" y="1272"/>
      <point x="130" y="791" type="curve" smooth="yes"/>
      <point x="130" y="545"/>
      <point x="258" y="307"/>
      <point x="523" y="156" type="curve"/>
      <point x="103" y="156" type="line"/>
    </contour>
  </outline>
</glyph>
<glyph name="mu" format="1">
  <advance width="1223"/>
  <unicode hex="03BC"/>
  <outline>
    <contour>
      <point x="829" y="1123" type="line"/>
      <point x="829" y="364" type="line" smooth="yes"/>
      <point x="829" y="236"/>
      <point x="850" y="136"/>
      <point x="605" y="136" type="curve" smooth="yes"/>
      <point x="431" y="136"/>
      <point x="391" y="162"/>
      <point x="386" y="280" type="curve"/>
      <point x="386" y="1123" type="line"/>
      <point x="152" y="1123" type="line"/>
      <point x="152" y="-328" type="line"/>
      <point x="386" y="-328" type="line"/>
      <point x="386" y="0" type="line"/>
      <point x="511" y="-29"/>
      <point x="775" y="-19"/>
      <point x="830" y="136" type="curve"/>
      <point x="850" y="-1" type="line"/>
      <point x="1066" y="-1" type="line"/>
      <point x="1066" y="1123" type="line"/>
    </contour>
  </outline>
</glyph>
<glyph name="pi" format="1">
  <advance width="1511"/>
  <unicode hex="03C0"/>
  <outline>
    <contour>
      <point x="1158" y="-26" type="curve" smooth="yes"/>
      <point x="1228" y="-26"/>
      <point x="1307" y="-2"/>
      <point x="1383" y="49" type="curve"/>
      <point x="1383" y="162" type="line"/>
      <point x="1338" y="149"/>
      <point x="1295" y="141"/>
      <point x="1258" y="142" type="curve" smooth="yes"/>
      <point x="1141" y="143"/>
      <point x="1071" y="219"/>
      <point x="1070" y="416" type="curve" smooth="yes"/>
      <point x="1069" y="541"/>
      <point x="1095" y="705"/>
      <point x="1142" y="924" type="curve"/>
      <point x="1377" y="924" type="line"/>
      <point x="1378" y="1123" type="line"/>
      <point x="486" y="1123" type="line" smooth="yes"/>
      <point x="233" y="1123"/>
      <point x="126" y="1015"/>
      <point x="126" y="783" type="curve"/>
      <point x="255" y="783" type="line"/>
      <point x="268" y="864"/>
      <point x="310" y="924"/>
      <point x="395" y="924" type="curve" smooth="yes"/>
      <point x="520" y="924" type="line"/>
      <point x="424" y="398" type="line" smooth="yes"/>
      <point x="383" y="176"/>
      <point x="261" y="129"/>
      <point x="168" y="129" type="curve"/>
      <point x="168" y="0" type="line"/>
      <point x="536" y="0"/>
      <point x="593" y="95"/>
      <point x="615" y="330" type="curve" smooth="yes"/>
      <point x="672" y="924" type="line"/>
      <point x="1018" y="924" type="line"/>
      <point x="951" y="714"/>
      <point x="886" y="490"/>
      <point x="886" y="305" type="curve" smooth="yes"/>
      <point x="887" y="83"/>
      <point x="1008" y="-26"/>
    </contour>
  </outline>
</glyph>
<glyph name="quotesinglbase" format="1">
  <advance width="488"/>
  <unicode hex="201A"/>
  <outline>
    <contour>
      <point x="261" y="-286" type="curve" smooth="yes"/>
      <point x="265" y="-261"/>
      <point x="340" y="96"/>
      <point x="340" y="183" type="curve" smooth="yes"/>
      <point x="340" y="269"/>
      <point x="304" y="312"/>
      <point x="243" y="312" type="curve" smooth="yes"/>
      <point x="168" y="312"/>
      <point x="147" y="269"/>
      <point x="147" y="170" type="curve" smooth="yes"/>
      <point x="147" y="87"/>
      <point x="223" y="-255"/>
      <point x="227" y="-280" type="curve" smooth="yes"/>
      <point x="228" y="-286"/>
      <point x="242" y="-291"/>
      <point x="245" y="-291" type="curve" smooth="yes"/>
      <point x="247" y="-291"/>
      <point x="260" y="-291"/>
    </contour>
  </outline>
</glyph>
<glyph name="quotedblleft" format="1">
  <advance width="1078"/>
  <unicode hex="201C"/>
  <outline>
    <contour>
      <point x="302" y="998" type="curve" smooth="yes"/>
      <point x="390" y="998"/>
      <point x="450" y="1074"/>
      <point x="450" y="1142" type="curve" smooth="yes"/>
      <point x="450" y="1246"/>
      <point x="401" y="1298"/>
      <point x="312" y="1299" type="curve"/>
      <point x="313" y="1400"/>
      <point x="366" y="1488"/>
      <point x="453" y="1488" type="curve"/>
      <point x="453" y="1562" type="line"/>
      <point x="288" y="1563"/>
      <point x="144" y="1388"/>
      <point x="144" y="1205" type="curve" smooth="yes"/>
      <point x="144" y="1071"/>
      <point x="196" y="998"/>
    </contour>
    <contour>
      <point x="768" y="998" type="curve" smooth="yes"/>
      <point x="879" y="998"/>
      <point x="931" y="1078"/>
      <point x="931" y="1142" type="curve" smooth="yes"/>
      <point x="931" y="1246"/>
      <point x="883" y="1298"/>
      <point x="795" y="1299" type="curve"/>
      <point x="796" y="1400"/>
      <point x="850" y="1488"/>
      <point x="933" y="1488" type="curve"/>
      <point x="933" y="1562" type="line"/>
      <point x="774" y="1563"/>
      <point x="624" y="1389"/>
      <point x="624" y="1205" type="curve" smooth="yes"/>
      <point x="624" y="1090"/>
      <point x="677" y="998"/>
    </contour>
  </outline>
</glyph>
<glyph name="quotedblright" format="1">
  <advance width="1074"/>
  <unicode hex="201D"/>
  <outline>
    <contour>
      <point x="153" y="999" type="line"/>
      <point x="316" y="997"/>
      <point x="464" y="1175"/>
      <point x="464" y="1355" type="curve" smooth="yes"/>
      <point x="464" y="1472"/>
      <point x="407" y="1562"/>
      <point x="320" y="1562" type="curve" smooth="yes"/>
      <point x="210" y="1562"/>
      <point x="156" y="1486"/>
      <point x="156" y="1419" type="curve" smooth="yes"/>
      <point x="156" y="1315"/>
      <point x="204" y="1262"/>
      <point x="292" y="1261" type="curve"/>
      <point x="292" y="1161"/>
      <point x="239" y="1072"/>
      <point x="153" y="1072" type="curve"/>
    </contour>
    <contour>
      <point x="635" y="999" type="line"/>
      <point x="799" y="997"/>
      <point x="944" y="1175"/>
      <point x="944" y="1355" type="curve" smooth="yes"/>
      <point x="944" y="1473"/>
      <point x="891" y="1562"/>
      <point x="802" y="1562" type="curve" smooth="yes"/>
      <point x="690" y="1562"/>
      <point x="637" y="1483"/>
      <point x="637" y="1419" type="curve" smooth="yes"/>
      <point x="637" y="1315"/>
      <point x="685" y="1262"/>
      <point x="775" y="1261" type="curve"/>
      <point x="774" y="1158"/>
      <point x="721" y="1072"/>
      <point x="635" y="1072" type="curve"/>
    </contour>
  </outline>
</glyph>
<glyph name="quotedblbase" format="1">
  <advance width="778"/>
  <unicode hex="201E"/>
  <outline>
    <contour>
      <point x="253" y="-286" type="curve" smooth="yes"/>
      <point x="258" y="-261"/>
      <point x="333" y="96"/>
      <point x="333" y="183" type="curve" smooth="yes"/>
      <point x="333" y="269"/>
      <point x="296" y="312"/>
      <point x="236" y="312" type="curve" smooth="yes"/>
      <point x="161" y="312"/>
      <point x="139" y="269"/>
      <point x="139" y="170" type="curve" smooth="yes"/>
      <point x="139" y="87"/>
      <point x="215" y="-255"/>
      <point x="220" y="-280" type="curve" smooth="yes"/>
      <point x="221" y="-286"/>
      <point x="235" y="-291"/>
      <point x="237" y="-291" type="curve" smooth="yes"/>
      <point x="239" y="-291"/>
      <point x="252" y="-291"/>
    </contour>
    <contour>
      <point x="559" y="-286" type="curve" smooth="yes"/>
      <point x="563" y="-261"/>
      <point x="638" y="96"/>
      <point x="638" y="183" type="curve" smooth="yes"/>
      <point x="638" y="269"/>
      <point x="601" y="312"/>
      <point x="541" y="312" type="curve" smooth="yes"/>
      <point x="466" y="312"/>
      <point x="444" y="269"/>
      <point x="444" y="170" type="curve" smooth="yes"/>
      <point x="444" y="87"/>
      <point x="521" y="-255"/>
      <point x="525" y="-280" type="curve" smooth="yes"/>
      <point x="526" y="-286"/>
      <point x="540" y="-291"/>
      <point x="542" y="-291" type="curve" smooth="yes"/>
      <point x="544" y="-291"/>
      <point x="558" y="-291"/>
    </contour>
  </outline>
</glyph>
<glyph name="bullet" format="1">
  <advance width="983"/>
  <unicode hex="2022"/>
  <outline>
    <contour>
      <point x="497" y="285" type="curve" smooth="yes"/>
      <point x="727" y="285"/>
      <point x="846" y="459"/>
      <point x="846" y="672" type="curve" smooth="yes"/>
      <point x="846" y="886"/>
      <point x="728" y="1059"/>
      <point x="499" y="1059" type="curve" smooth="yes"/>
      <point x="262" y="1059"/>
      <point x="135" y="884"/>
      <point x="135" y="670" type="curve" smooth="yes"/>
      <point x="135" y="459"/>
      <point x="260" y="285"/>
    </contour>
  </outline>
</glyph>
<glyph name="ellipsis" format="1">
  <advance width="1685"/>
  <unicode hex="2026"/>
  <outline>
    <contour>
      <point x="277" y="-37" type="curve" smooth="yes"/>
      <point x="367" y="-37"/>
      <point x="424" y="29"/>
      <point x="424" y="124" type="curve" smooth="yes"/>
      <point x="424" y="215"/>
      <point x="361" y="285"/>
      <point x="277" y="285" type="curve" smooth="yes"/>
      <point x="186" y="285"/>
      <point x="130" y="218"/>
      <point x="130" y="124" type="curve" smooth="yes"/>
      <point x="130" y="29"/>
      <point x="193" y="-37"/>
    </contour>
    <contour>
      <point x="843" y="-37" type="curve" smooth="yes"/>
      <point x="932" y="-37"/>
      <point x="989" y="29"/>
      <point x="989" y="124" type="curve" smooth="yes"/>
      <point x="989" y="223"/>
      <point x="926" y="285"/>
      <point x="841" y="285" type="curve" smooth="yes"/>
      <point x="756" y="285"/>
      <point x="695" y="218"/>
      <point x="695" y="125" type="curve" smooth="yes"/>
      <point x="695" y="34"/>
      <point x="757" y="-37"/>
    </contour>
    <contour>
      <point x="1407" y="-37" type="curve" smooth="yes"/>
      <point x="1496" y="-37"/>
      <point x="1553" y="29"/>
      <point x="1553" y="124" type="curve" smooth="yes"/>
      <point x="1553" y="210"/>
      <point x="1493" y="285"/>
      <point x="1419" y="285" type="curve" smooth="yes"/>
      <point x="1317" y="285"/>
      <point x="1260" y="224"/>
      <point x="1260" y="124" type="curve" smooth="yes"/>
      <point x="1260" y="25"/>
      <point x="1322" y="-37"/>
    </contour>
  </outline>
</glyph>
<glyph name="Euro" format="1">
  <advance width="1357"/>
  <unicode hex="20AC"/>
  <outline>
    <contour>
      <point x="782" y="-26" type="curve" smooth="yes"/>
      <point x="1106" y="-26"/>
      <point x="1248" y="41"/>
      <point x="1279" y="336" type="curve" smooth="yes"/>
      <point x="1283" y="364"/>
      <point x="1286" y="412"/>
      <point x="1288" y="445" type="curve"/>
      <point x="1071" y="467" type="line"/>
      <point x="1062" y="357"/>
      <point x="1062" y="250"/>
      <point x="1026" y="205" type="curve" smooth="yes"/>
      <point x="990" y="161"/>
      <point x="910" y="143"/>
      <point x="755" y="143" type="curve" smooth="yes"/>
      <point x="486" y="143"/>
      <point x="404" y="190"/>
      <point x="398" y="282" type="curve" smooth="yes"/>
      <point x="393" y="356"/>
      <point x="391" y="479"/>
      <point x="390" y="555" type="curve"/>
      <point x="899" y="555" type="line"/>
      <point x="919" y="662" type="line"/>
      <point x="390" y="662" type="line"/>
      <point x="390" y="828" type="line"/>
      <point x="899" y="828" type="line"/>
      <point x="919" y="936" type="line"/>
      <point x="391" y="936" type="line"/>
      <point x="393" y="1017"/>
      <point x="394" y="1144"/>
      <point x="398" y="1223" type="curve" smooth="yes"/>
      <point x="404" y="1348"/>
      <point x="527" y="1359"/>
      <point x="754" y="1359" type="curve" smooth="yes"/>
      <point x="879" y="1359"/>
      <point x="957" y="1359"/>
      <point x="999" y="1324" type="curve" smooth="yes"/>
      <point x="1041" y="1289"/>
      <point x="1055" y="1184"/>
      <point x="1069" y="1049" type="curve"/>
      <point x="1287" y="1078" type="line"/>
      <point x="1285" y="1102"/>
      <point x="1282" y="1143"/>
      <point x="1279" y="1163" type="curve" smooth="yes"/>
      <point x="1243" y="1474"/>
      <point x="1084" y="1529"/>
      <point x="765" y="1529" type="curve" smooth="yes"/>
      <point x="324" y="1529"/>
      <point x="179" y="1459"/>
      <point x="154" y="1089" type="curve" smooth="yes"/>
      <point x="151" y="1051"/>
      <point x="149" y="980"/>
      <point x="149" y="936" type="curve"/>
      <point x="-2" y="936" type="line"/>
      <point x="-22" y="828" type="line"/>
      <point x="147" y="828" type="line"/>
      <point x="147" y="662" type="line"/>
      <point x="-2" y="662" type="line"/>
      <point x="-22" y="555" type="line"/>
      <point x="149" y="555" type="line"/>
      <point x="150" y="520"/>
      <point x="152" y="457"/>
      <point x="155" y="427" type="curve" smooth="yes"/>
      <point x="181" y="78"/>
      <point x="330" y="-26"/>
    </contour>
  </outline>
</glyph>
<glyph name="emptyset" format="1">
  <advance width="1718"/>
  <unicode hex="2205"/>
  <outline>
    <contour>
      <point x="287" y="-81" type="line"/>
      <point x="437" y="97" type="line"/>
      <point x="557" y="18"/>
      <point x="702" y="-25"/>
      <point x="858" y="-25" type="curve" smooth="yes"/>
      <point x="1259" y="-25"/>
      <point x="1587" y="297"/>
      <point x="1587" y="696" type="curve" smooth="yes"/>
      <point x="1587" y="895"/>
      <point x="1506" y="1073"/>
      <point x="1377" y="1204" type="curve"/>
      <point x="1528" y="1382" type="line"/>
      <point x="1438" y="1460" type="line"/>
      <point x="1287" y="1281" type="line"/>
      <point x="1166" y="1367"/>
      <point x="1018" y="1419"/>
      <point x="858" y="1419" type="curve" smooth="yes"/>
      <point x="459" y="1419"/>
      <point x="131" y="1127"/>
      <point x="131" y="696" type="curve" smooth="yes"/>
      <point x="131" y="474"/>
      <point x="214" y="292"/>
      <point x="349" y="167" type="curve"/>
      <point x="204" y="-6" type="line"/>
    </contour>
    <contour>
      <point x="441" y="276" type="line"/>
      <point x="340" y="378"/>
      <point x="280" y="524"/>
      <point x="280" y="695" type="curve" smooth="yes"/>
      <point x="280" y="1037"/>
      <point x="529" y="1285"/>
      <point x="858" y="1285" type="curve" smooth="yes"/>
      <point x="986" y="1285"/>
      <point x="1103" y="1243"/>
      <point x="1197" y="1174" type="curve"/>
    </contour>
    <contour>
      <point x="857" y="109" type="curve" smooth="yes"/>
      <point x="733" y="109"/>
      <point x="620" y="142"/>
      <point x="528" y="204" type="curve"/>
      <point x="1284" y="1095" type="line"/>
      <point x="1380" y="988"/>
      <point x="1438" y="846"/>
      <point x="1438" y="695" type="curve" smooth="yes"/>
      <point x="1438" y="382"/>
      <point x="1187" y="109"/>
    </contour>
  </outline>
</glyph>
<glyph name="summation" format="1">
  <advance width="1315"/>
  <unicode hex="2211"/>
  <outline>
    <contour>
      <point x="162" y="-16" type="line"/>
      <point x="1159" y="-16" type="line"/>
      <point x="1159" y="174" type="line"/>
      <point x="419" y="174" type="line"/>
      <point x="933" y="686" type="line"/>
      <point x="933" y="793" type="line"/>
      <point x="420" y="1322" type="line"/>
      <point x="1155" y="1322" type="line"/>
      <point x="1155" y="1504" type="line"/>
      <point x="162" y="1504" type="line"/>
      <point x="162" y="1316" type="line"/>
      <point x="702" y="749" type="line"/>
      <point x="162" y="192" type="line"/>
    </contour>
  </outline>
</glyph>
<glyph name="minus" format="1">
  <advance width="949"/>
  <unicode hex="2212"/>
  <outline>
    <contour>
      <point x="66" y="555" type="line"/>
      <point x="887" y="555" type="line"/>
      <point x="887" y="707" type="line"/>
      <point x="66" y="707" type="line"/>
    </contour>
  </outline>
</glyph>
<glyph name="integral" format="1">
  <advance width="976"/>
  <unicode hex="222B"/>
  <outline>
    <contour>
      <point x="212" y="-304" type="curve" smooth="yes"/>
      <point x="393" y="-304"/>
      <point x="509" y="-255"/>
      <point x="534" y="36" type="curve" smooth="yes"/>
      <point x="647" y="1343" type="line" smooth="yes"/>
      <point x="659" y="1479"/>
      <point x="674" y="1504"/>
      <point x="759" y="1504" type="curve" smooth="yes"/>
      <point x="789" y="1504"/>
      <point x="830" y="1492"/>
      <point x="861" y="1475" type="curve"/>
      <point x="930" y="1623" type="line"/>
      <point x="886" y="1648"/>
      <point x="803" y="1674"/>
      <point x="747" y="1674" type="curve" smooth="yes"/>
      <point x="566" y="1674"/>
      <point x="451" y="1625"/>
      <point x="426" y="1334" type="curve" smooth="yes"/>
      <point x="312" y="27" type="line" smooth="yes"/>
      <point x="300" y="-109"/>
      <point x="285" y="-134"/>
      <point x="200" y="-134" type="curve" smooth="yes"/>
      <point x="170" y="-134"/>
      <point x="129" y="-123"/>
      <point x="98" y="-105" type="curve"/>
      <point x="29" y="-254" type="line"/>
      <point x="73" y="-278"/>
      <point x="156" y="-304"/>
    </contour>
  </outline>
</glyph>
<glyph name="approxequal" format="1">
  <advance width="1113"/>
  <unicode hex="2248"/>
  <outline>
    <contour>
      <point x="876" y="445" type="curve" smooth="yes"/>
      <point x="986" y="439"/>
      <point x="1036" y="499"/>
      <point x="1045" y="702" type="curve"/>
      <point x="922" y="702" type="line"/>
      <point x="917" y="623"/>
      <point x="885" y="597"/>
      <point x="832" y="597" type="curve" smooth="yes"/>
      <point x="725" y="597"/>
      <point x="531" y="706"/>
      <point x="306" y="717" type="curve" smooth="yes"/>
      <point x="209" y="723"/>
      <point x="129" y="692"/>
      <point x="116" y="452" type="curve"/>
      <point x="239" y="452" type="line"/>
      <point x="238" y="537"/>
      <point x="272" y="566"/>
      <point x="331" y="566" type="curve" smooth="yes"/>
      <point x="446" y="566"/>
      <point x="661" y="457"/>
    </contour>
    <contour>
      <point x="831" y="685" type="curve" smooth="yes"/>
      <point x="942" y="678"/>
      <point x="992" y="739"/>
      <point x="1000" y="942" type="curve"/>
      <point x="877" y="942" type="line"/>
      <point x="872" y="863"/>
      <point x="840" y="837"/>
      <point x="787" y="837" type="curve" smooth="yes"/>
      <point x="680" y="837"/>
      <point x="486" y="945"/>
      <point x="261" y="957" type="curve" smooth="yes"/>
      <point x="165" y="962"/>
      <point x="85" y="932"/>
      <point x="71" y="692" type="curve"/>
      <point x="194" y="692" type="line"/>
      <point x="193" y="777"/>
      <point x="227" y="806"/>
      <point x="286" y="806" type="curve" smooth="yes"/>
      <point x="401" y="806"/>
      <point x="616" y="697"/>
    </contour>
  </outline>
</glyph>
<glyph name="notequal" format="1">
  <advance width="667"/>
  <unicode hex="2260"/>
  <outline>
    <contour>
      <point x="141" y="174" type="line"/>
      <point x="320" y="174" type="line"/>
      <point x="404" y="414" type="line"/>
      <point x="807" y="414" type="line"/>
      <point x="807" y="603" type="line"/>
      <point x="470" y="603" type="line"/>
      <point x="535" y="792" type="line"/>
      <point x="807" y="792" type="line"/>
      <point x="807" y="981" type="line"/>
      <point x="601" y="981" type="line"/>
      <point x="686" y="1224" type="line"/>
      <point x="508" y="1224" type="line"/>
      <point x="423" y="981" type="line"/>
      <point x="-29" y="981" type="line"/>
      <point x="-29" y="792" type="line"/>
      <point x="357" y="792" type="line"/>
      <point x="291" y="603" type="line"/>
      <point x="-29" y="603" type="line"/>
      <point x="-29" y="414" type="line"/>
      <point x="225" y="414" type="line"/>
    </contour>
  </outline>
</glyph>
<glyph name="caron.alt" format="1">
  <advance width="661"/>
  <outline>
    <contour>
      <point x="86" y="1117" type="move" name="_caron.alt"/>
    </contour>
    <contour>
      <point x="291" y="1623" type="curve" smooth="yes"/>
      <point x="291" y="1511"/>
      <point x="342" y="1453"/>
      <point x="437" y="1448" type="curve"/>
      <point x="436" y="1358"/>
      <point x="383" y="1291"/>
      <point x="306" y="1288" type="curve"/>
      <point x="306" y="1222" type="line"/>
      <point x="486" y="1222"/>
      <point x="600" y="1396"/>
      <point x="600" y="1574" type="curve" smooth="yes"/>
      <point x="600" y="1701"/>
      <point x="524" y="1763"/>
      <point x="441" y="1763" type="curve" smooth="yes"/>
      <point x="366" y="1763"/>
      <point x="291" y="1710"/>
    </contour>
  </outline>
</glyph>
